<?xml version="1.0" encoding="UTF-8" standalone="no"?>
<!-- Created with Inkscape (http://www.inkscape.org/) -->

<svg
   width="287mm"
   height="94.087166mm"
   viewBox="0 0 287 94.087166"
   version="1.1"
   id="svg1"
   inkscape:version="1.3.2 (091e20e, 2023-11-25)"
   sodipodi:docname="kevin-final.svg"
   xmlns:inkscape="http://www.inkscape.org/namespaces/inkscape"
   xmlns:sodipodi="http://sodipodi.sourceforge.net/DTD/sodipodi-0.dtd"
   xmlns="http://www.w3.org/2000/svg"
   xmlns:svg="http://www.w3.org/2000/svg">
  <sodipodi:namedview
     id="namedview1"
     pagecolor="#ffffff"
     bordercolor="#666666"
     borderopacity="1.0"
     inkscape:showpageshadow="2"
     inkscape:pageopacity="0.0"
     inkscape:pagecheckerboard="0"
     inkscape:deskcolor="#d1d1d1"
     inkscape:document-units="mm"
     inkscape:zoom="1.624025"
     inkscape:cx="550.17626"
     inkscape:cy="162.86695"
     inkscape:window-width="3768"
     inkscape:window-height="2089"
     inkscape:window-x="72"
     inkscape:window-y="34"
     inkscape:window-maximized="1"
     inkscape:current-layer="layer1"
     showgrid="false" />
  <defs
     id="defs1">
    <clipPath
       clipPathUnits="userSpaceOnUse"
       id="clipPath2">
      <path
         d="M 0,720 H 1024 V 0 H 0 Z"
         transform="translate(-458.01951,-430.63961)"
         id="path2" />
    </clipPath>
    <clipPath
       clipPathUnits="userSpaceOnUse"
       id="clipPath4">
      <path
         d="M 0,720 H 1024 V 0 H 0 Z"
         transform="translate(-410.33401,-410.49611)"
         id="path4" />
    </clipPath>
    <clipPath
       clipPathUnits="userSpaceOnUse"
       id="clipPath6">
      <path
         d="M 0,720 H 1024 V 0 H 0 Z"
         transform="translate(-358.70071,-398.38041)"
         id="path6" />
    </clipPath>
    <clipPath
       clipPathUnits="userSpaceOnUse"
       id="clipPath8">
      <path
         d="M 0,720 H 1024 V 0 H 0 Z"
         transform="translate(-239.40231,-348.03711)"
         id="path8" />
    </clipPath>
    <clipPath
       clipPathUnits="userSpaceOnUse"
       id="clipPath10">
      <path
         d="M 0,720 H 1024 V 0 H 0 Z"
         transform="translate(-204.38431,-334.39361)"
         id="path10" />
    </clipPath>
    <clipPath
       clipPathUnits="userSpaceOnUse"
       id="clipPath12">
      <path
         d="M 0,720 H 1024 V 0 H 0 Z"
         id="path12" />
    </clipPath>
    <clipPath
       clipPathUnits="userSpaceOnUse"
       id="clipPath14">
      <path
         d="M 0,720 H 1024 V 0 H 0 Z"
         id="path14" />
    </clipPath>
    <clipPath
       clipPathUnits="userSpaceOnUse"
       id="clipPath16">
      <path
         d="M 0,720 H 1024 V 0 H 0 Z"
         id="path16" />
    </clipPath>
    <clipPath
       clipPathUnits="userSpaceOnUse"
       id="clipPath18">
      <path
         d="M 0,720 H 1024 V 0 H 0 Z"
         id="path18" />
    </clipPath>
    <clipPath
       clipPathUnits="userSpaceOnUse"
       id="clipPath20">
      <path
         d="M 0,720 H 1024 V 0 H 0 Z"
         transform="translate(-578.51951,-299.26171)"
         id="path20" />
    </clipPath>
    <clipPath
       clipPathUnits="userSpaceOnUse"
       id="clipPath22">
      <path
         d="M 0,720 H 1024 V 0 H 0 Z"
         transform="translate(-636.66112,-419.25291)"
         id="path22" />
    </clipPath>
    <clipPath
       clipPathUnits="userSpaceOnUse"
       id="clipPath24">
      <path
         d="M 0,720 H 1024 V 0 H 0 Z"
         transform="translate(-673.79002,-401.65431)"
         id="path24" />
    </clipPath>
    <clipPath
       clipPathUnits="userSpaceOnUse"
       id="clipPath28">
      <path
         d="M 0,720 H 1024 V 0 H 0 Z"
         transform="translate(-831.57812,-338.77831)"
         id="path28" />
    </clipPath>
    <clipPath
       clipPathUnits="userSpaceOnUse"
       id="clipPath8-2">
      <path
         d="M 0,841.89 H 595.276 V 0 H 0 Z"
         transform="translate(-485.89821,-413.74531)"
         id="path8-9" />
    </clipPath>
  </defs>
  <g
     inkscape:label="Layer 1"
     inkscape:groupmode="layer"
     id="layer1"
     transform="translate(-15.318747,-155.0585)">
    <g
       id="g42"
       transform="matrix(1.1655264,0,0,1.1655264,-25.707316,-38.724509)">
      <g
         id="g41">
        <path
           id="path19"
           d="m 0,0 c -8.115,19.186 -12.229,39.572 -12.229,60.596 0,21.024 4.114,41.41 12.229,60.596 4.98,11.778 11.329,22.792 18.963,32.928 4.098,5.439 3.35,13.108 -1.74,17.631 -5.704,5.068 -14.518,4.185 -19.108,-1.911 -1.87,-2.483 -3.676,-5.012 -5.413,-7.582 -6.564,-9.722 -12.206,-20.113 -16.764,-30.889 -9.484,-22.423 -14.292,-46.234 -14.292,-70.773 0,-24.539 4.808,-48.35 14.292,-70.773 4.558,-10.776 10.2,-21.167 16.764,-30.888 1.717,-2.54 3.5,-5.04 5.347,-7.496 4.588,-6.099 13.405,-6.982 19.11,-1.913 5.088,4.522 5.836,12.186 1.744,17.626 C 11.295,-22.734 4.969,-11.746 0,0"
           style="fill:#000000;fill-opacity:1;fill-rule:nonzero;stroke:none"
           transform="matrix(0.35277776,0,0,-0.35277776,178.84153,228.01807)"
           clip-path="url(#clipPath20)" />
        <path
           id="path21"
           d="m 0,0 c 3.785,5.423 2.894,12.824 -2.05,17.217 -5.832,5.183 -14.9,4.147 -19.366,-2.251 -5.17,-7.405 -9.552,-15.336 -13.103,-23.732 -6.784,-16.044 -10.226,-33.077 -10.226,-50.629 0,-17.552 3.442,-34.585 10.226,-50.629 3.538,-8.362 7.897,-16.262 13.039,-23.64 4.462,-6.404 13.536,-7.442 19.37,-2.258 v 0.001 c 4.941,4.391 5.833,11.786 2.054,17.211 -4.102,5.89 -7.581,12.193 -10.402,18.862 -5.416,12.807 -8.162,26.415 -8.162,40.453 0,14.037 2.746,27.646 8.162,40.452 C -7.624,-12.244 -4.128,-5.913 0,0"
           style="fill:#000000;fill-opacity:1;fill-rule:nonzero;stroke:none"
           transform="matrix(0.35277776,0,0,-0.35277776,199.3526,185.68784)"
           clip-path="url(#clipPath22)" />
        <path
           id="path23"
           d="m 0,0 v 0 c -6.2,5.51 -15.936,3.939 -20.015,-3.283 -1.463,-2.589 -2.78,-5.267 -3.948,-8.03 -4.087,-9.661 -6.158,-19.918 -6.158,-30.483 0,-10.566 2.071,-20.823 6.158,-30.484 1.153,-2.727 2.452,-5.372 3.893,-7.93 4.07,-7.23 13.815,-8.801 20.017,-3.289 4.572,4.063 5.748,10.775 2.741,16.101 -4.364,7.727 -6.685,16.486 -6.685,25.602 0,9.146 2.337,17.933 6.729,25.678 C 5.753,-10.791 4.577,-4.067 0,0"
           style="fill:#000000;fill-opacity:1;fill-rule:nonzero;stroke:none"
           transform="matrix(0.35277776,0,0,-0.35277776,212.45085,191.89624)"
           clip-path="url(#clipPath24)" />
        <g
           id="g34"
           transform="translate(11.830372,150.2591)">
          <path
             id="path29"
             clip-path="url(#clipPath8-2)"
             style="fill:#000000;fill-opacity:1;fill-rule:nonzero;stroke:none"
             d="m -13.633956,19.147153 c -1.270997,0 -2.305267,-1.034929 -2.305267,-2.305927 V -2.4568871 c 0,-1.2709974 1.03427,-2.303947 2.305267,-2.303947 1.270997,0 2.305267,1.0329496 2.305267,2.303947 V -0.582579 H -12.3292 v -1.8743081 c 0,-0.7189985 -0.584757,-1.304096 -1.304756,-1.304096 -0.719999,0 -1.304756,0.5850975 -1.304756,1.304096 V 16.841226 c 0,0.72 0.584757,1.306076 1.304756,1.306076 0.719999,0 1.304756,-0.586076 1.304756,-1.306076 v -1.871668 h 1.000511 v 1.871668 c 0,1.270998 -1.03427,2.305927 -2.305267,2.305927 z"
             transform="matrix(0.78301465,0,0,-0.78301465,268.99987,62.002547)" />
          <g
             id="g33"
             transform="translate(0,21.695841)">
            <path
               id="path30"
               clip-path="url(#clipPath8-2)"
               style="fill:#000000;fill-opacity:1;fill-rule:nonzero;stroke:none"
               d="m -0.36896794,14.520854 c -0.56799943,0 -1.03086946,-0.46287 -1.03086946,-1.030869 V 2.4649323e-4 c 0,-0.56799943323 0.46287003,-1.03152939323 1.03086946,-1.03152939323 0.56799943,0 1.03086944,0.46352996 1.03086944,1.03152939323 V 13.489985 c 0,0.567999 -0.46287001,1.030869 -1.03086944,1.030869 z m 0,-0.661947 c 0.2029998,0 0.368921903984,-0.165922 0.368921903984,-0.368922 V 2.4649323e-4 C -4.6036016e-5,-0.2037533 -0.16596814,-0.36867541 -0.36896794,-0.36867541 c -0.2029998,0 -0.36892191,0.16492211 -0.36892191,0.36892190323 V 13.489985 c 0,0.203 0.16592211,0.368922 0.36892191,0.368922 z"
               transform="matrix(0.78301465,0,0,-0.78301465,269.09162,39.955616)" />
            <path
               id="path31"
               clip-path="url(#clipPath8-2)"
               style="fill:#000000;fill-opacity:1;fill-rule:nonzero;stroke:none"
               d="m -12.660865,14.520839 c -0.963999,0 -1.748254,-0.783916 -1.748254,-1.748915 V 0.71695559 c 0,-0.96399904 0.784255,-1.74825429 1.748254,-1.74825429 h 12.29189706 c 0.56799943,0 1.03086944,0.46353001 1.03086944,1.03152944214 V 13.489969 c 0,0.568 -0.46287001,1.03087 -1.03086944,1.03087 z m 0,-0.661948 h 12.29189706 c 0.19775669,0 0.3893809,-0.178052 0.3893809,-0.368922 V 2.3074214e-4 c 0,-0.18820887214 -0.18963067,-0.36958187214 -0.3893809,-0.36958187214 H -12.660865 c -0.546185,0 -1.106766,0.53995856 -1.106766,1.08630672 V 12.771924 c 0,0.551265 0.549778,1.086967 1.106766,1.086967 z"
               transform="matrix(0.78301465,0,0,-0.78301465,269.09162,39.955616)"
               sodipodi:nodetypes="ssssssssssssssssss" />
          </g>
          <path
             id="path32"
             clip-path="url(#clipPath8-2)"
             style="fill:#000000;fill-opacity:1;fill-rule:nonzero;stroke:none"
             d="m -39.705019,19.147229 c -3.244996,0 -5.886251,-2.641255 -5.886251,-5.886252 V 1.1241726 c 0,-0.52399943 0.07559,-1.02930622 0.20459,-1.51330573 l 0.145853,-0.46659712 c 0.815999,-2.27299775 2.985811,-3.90502845 5.535808,-3.90502845 h 25.953887 c -1.270996,0 -2.305267,1.0329496 -2.305267,2.303947 V 16.841302 c 0,1.270997 1.034271,2.305927 2.305267,2.305927 z m 25.953887,0 c 0.03939,0 0.07791,-0.004 0.116815,-0.0059 v 0.0059 z m 0,-23.9079877 h 0.116815 v 0.00594 c -0.03891,-0.00196 -0.07743,-0.00594 -0.116815,-0.00594 z"
             transform="matrix(0.78301465,0,0,-0.78301465,269.09162,62.002606)" />
          <path
             id="path33"
             d="M -45.591,11.296 H -67.944 V 3.089 h 22.353"
             style="fill:#000000;fill-opacity:1;fill-rule:nonzero;stroke:none"
             clip-path="url(#clipPath8-2)"
             sodipodi:nodetypes="cccc"
             transform="matrix(0.78301465,0,0,-0.78301465,269.09162,62.00203)" />
        </g>
        <path
           id="path35"
           clip-path="url(#clipPath28)"
           style="fill:#000000;fill-opacity:1;fill-rule:nonzero;stroke:none"
           d="m -125.21215,47.445704 c -14.54299,0 -26.33203,-11.789047 -26.33203,-26.332033 0,-14.542985 11.78904,-26.3320321 26.33203,-26.3320321 14.54298,0 26.332032,11.7890471 26.332032,26.3320321 0,14.542986 -11.789052,26.332033 -26.332032,26.332033 z"
           transform="matrix(0.35277776,0,0,-0.35277776,268.11504,214.07773)" />
      </g>
      <g
         id="g40">
        <path
           id="path1"
           d="m 0,0 c -4.559,10.776 -10.2,21.167 -16.766,30.889 -1.736,2.569 -3.542,5.099 -5.412,7.582 -4.59,6.095 -13.404,6.979 -19.107,1.911 v 0 c -5.091,-4.524 -5.839,-12.192 -1.741,-17.632 7.634,-10.135 13.983,-21.149 18.964,-32.927 8.115,-19.185 12.229,-39.573 12.229,-60.596 0,-21.024 -4.114,-41.411 -12.229,-60.595 -4.969,-11.747 -11.296,-22.736 -18.904,-32.849 -4.092,-5.44 -3.344,-13.103 1.744,-17.626 5.705,-5.069 14.523,-4.185 19.11,1.913 1.847,2.455 3.63,4.955 5.346,7.495 6.566,9.722 12.207,20.113 16.766,30.889 9.483,22.423 14.292,46.233 14.292,70.773 C 14.292,-46.234 9.483,-22.423 0,0"
           style="fill:#000000;fill-opacity:1;fill-rule:nonzero;stroke:none"
           transform="matrix(0.35277776,0,0,-0.35277776,136.33181,181.67087)"
           clip-path="url(#clipPath2)" />
        <path
           id="path3"
           d="m 0,0 c -3.551,8.396 -7.933,16.327 -13.103,23.731 -4.466,6.399 -13.534,7.436 -19.366,2.252 -4.943,-4.393 -5.835,-11.795 -2.05,-17.217 4.128,-5.913 7.624,-12.245 10.458,-18.943 5.416,-12.806 8.163,-26.415 8.163,-40.452 0,-14.037 -2.747,-27.646 -8.163,-40.452 -2.821,-6.67 -6.299,-12.974 -10.402,-18.863 -3.778,-5.424 -2.887,-12.821 2.054,-17.211 5.835,-5.186 14.908,-4.147 19.37,2.257 5.143,7.377 9.502,15.278 13.039,23.639 6.785,16.044 10.227,33.077 10.227,50.63 C 10.227,-33.077 6.785,-16.044 0,0"
           style="fill:#000000;fill-opacity:1;fill-rule:nonzero;stroke:none"
           transform="matrix(0.35277776,0,0,-0.35277776,119.50943,188.77705)"
           clip-path="url(#clipPath4)" />
        <path
           id="path5"
           d="m 0,0 c -4.079,7.222 -13.814,8.793 -20.014,3.283 h -0.001 c -4.577,-4.068 -5.752,-10.791 -2.732,-16.117 4.393,-7.747 6.729,-16.533 6.729,-25.68 0,-9.115 -2.32,-17.874 -6.684,-25.601 -3.008,-5.326 -1.831,-12.038 2.741,-16.101 6.202,-5.512 15.947,-3.942 20.017,3.289 1.44,2.557 2.739,5.203 3.892,7.929 4.087,9.662 6.159,19.918 6.159,30.484 0,10.566 -2.072,20.823 -6.159,30.484 C 2.78,-5.268 1.463,-2.589 0,0"
           style="fill:#000000;fill-opacity:1;fill-rule:nonzero;stroke:none"
           transform="matrix(0.35277776,0,0,-0.35277776,101.29434,193.05119)"
           clip-path="url(#clipPath6)" />
        <path
           id="path36"
           d="m 0,38.726 c 0,1.471 -1.193,2.664 -2.664,2.664 h -73.798 c -1.472,0 -2.665,-1.193 -2.665,-2.664 v -53.708 c 0,-1.472 1.193,-2.664 2.665,-2.664 h 73.798 c 1.471,0 2.664,1.192 2.664,2.664"
           style="fill:#000000;fill-opacity:1;fill-rule:nonzero;stroke:none"
           transform="matrix(0.30342262,0,0,-0.30342262,59.208522,210.22525)"
           clip-path="url(#clipPath8)"
           sodipodi:nodetypes="cssssssc" />
        <g
           id="g39"
           transform="matrix(0.86009565,0,0,0.86009565,8.2835301,28.907459)">
          <path
             id="path9"
             d="m 0,0 h -1.738 v 2.635 h -15.338 v 7.288 h 15.338 v 5.326 h -15.338 v 7.289 h 15.338 v 5.325 h -15.338 v 7.289 h 15.338 v 5.325 h -15.338 v 7.289 h 15.338 v 3.265 H 0 V 46.027 H -15.337 V 42.215 H 0 V 33.414 H -15.337 V 29.601 H 0 V 20.8 H -15.337 V 16.987 H 0 V 8.185 H -15.337 V 4.373 H 0 Z"
             style="fill:#ffffff;fill-opacity:1;fill-rule:nonzero;stroke:none"
             transform="matrix(0.35277776,0,0,-0.35277776,47.078964,215.62432)"
             clip-path="url(#clipPath10)" />
          <g
             id="g38">
            <path
               id="path11"
               d="m 179.987,376.608 h 3.824 v 3.825 h -3.824 z m 5.563,-1.738 h -7.301 v 7.302 h 7.301 z"
               style="fill:#ffffff;fill-opacity:1;fill-rule:nonzero;stroke:none"
               transform="matrix(0.35277776,0,0,-0.35277776,-25.247289,333.59095)"
               clip-path="url(#clipPath12)" />
            <path
               id="path13"
               d="m 179.987,363.995 h 3.824 v 3.825 h -3.824 z m 5.563,-1.739 h -7.301 v 7.301 h 7.301 z"
               style="fill:#ffffff;fill-opacity:1;fill-rule:nonzero;stroke:none"
               transform="matrix(0.35277776,0,0,-0.35277776,-25.247289,333.59095)"
               clip-path="url(#clipPath14)" />
            <path
               id="path15"
               d="m 179.987,351.381 h 3.824 v 3.825 h -3.824 z m 5.563,-1.738 h -7.301 v 7.301 h 7.301 z"
               style="fill:#ffffff;fill-opacity:1;fill-rule:nonzero;stroke:none"
               transform="matrix(0.35277776,0,0,-0.35277776,-25.247289,333.59095)"
               clip-path="url(#clipPath16)" />
            <path
               id="path17"
               d="m 179.987,338.767 h 3.824 v 3.825 h -3.824 z m 5.563,-1.739 h -7.301 v 7.302 h 7.301 z"
               style="fill:#ffffff;fill-opacity:1;fill-rule:nonzero;stroke:none"
               transform="matrix(0.35277776,0,0,-0.35277776,-25.247289,333.59095)"
               clip-path="url(#clipPath18)" />
          </g>
        </g>
        <path
           id="path38"
           clip-path="url(#clipPath28)"
           style="fill:#000000;fill-opacity:1;fill-rule:nonzero;stroke:none"
           d="m -125.21215,47.445704 c -14.54299,0 -26.33203,-11.789047 -26.33203,-26.332033 0,-14.542985 11.78904,-26.3320321 26.33203,-26.3320321 14.54298,0 26.332032,11.7890471 26.332032,26.3320321 0,14.542986 -11.789052,26.332033 -26.332032,26.332033 z"
           transform="matrix(0.35277776,0,0,-0.35277776,126.91367,214.07145)" />
        <path
           id="path37"
           clip-path="url(#clipPath8)"
           style="fill:#000000;fill-opacity:1;fill-rule:nonzero;stroke:none"
           d="M 2.3591499,29.383076 V 23.743427 H 51.131125 v 5.639649 z m 0,-9.795411 V 13.949481 H 51.131125 v 5.638184 z m 0,-9.792481 V 4.1555353 H 51.131125 V 9.795184 Z m 0,-9.79541062403 V -5.6398753 H 51.131125 v 5.63964867597 z"
           transform="matrix(0.35277776,0,0,-0.35277776,58.150188,210.81119)"
           sodipodi:nodetypes="cccccccccccccccccccc" />
      </g>
    </g>
  </g>
</svg>
