<?xml version="1.0" encoding="UTF-8" standalone="no"?>
<!-- Created with Inkscape (http://www.inkscape.org/) -->

<svg
   width="286.99957mm"
   height="93.252708mm"
   viewBox="0 0 286.99957 93.252709"
   version="1.1"
   id="svg1"
   inkscape:version="1.3.2 (091e20e, 2023-11-25)"
   sodipodi:docname="kevin-final-mid-new-dupont.svg"
   xmlns:inkscape="http://www.inkscape.org/namespaces/inkscape"
   xmlns:sodipodi="http://sodipodi.sourceforge.net/DTD/sodipodi-0.dtd"
   xmlns="http://www.w3.org/2000/svg"
   xmlns:svg="http://www.w3.org/2000/svg">
  <sodipodi:namedview
     id="namedview1"
     pagecolor="#ffffff"
     bordercolor="#666666"
     borderopacity="1.0"
     inkscape:showpageshadow="2"
     inkscape:pageopacity="0.0"
     inkscape:pagecheckerboard="0"
     inkscape:deskcolor="#d1d1d1"
     inkscape:document-units="mm"
     inkscape:zoom="2"
     inkscape:cx="570.75"
     inkscape:cy="144.25"
     inkscape:window-width="3768"
     inkscape:window-height="2089"
     inkscape:window-x="72"
     inkscape:window-y="34"
     inkscape:window-maximized="1"
     inkscape:current-layer="layer1"
     showgrid="false" />
  <defs
     id="defs1">
    <clipPath
       clipPathUnits="userSpaceOnUse"
       id="clipPath2">
      <path
         d="M 0,720 H 1024 V 0 H 0 Z"
         transform="translate(-458.01951,-430.63961)"
         id="path2" />
    </clipPath>
    <clipPath
       clipPathUnits="userSpaceOnUse"
       id="clipPath4">
      <path
         d="M 0,720 H 1024 V 0 H 0 Z"
         transform="translate(-410.33401,-410.49611)"
         id="path4" />
    </clipPath>
    <clipPath
       clipPathUnits="userSpaceOnUse"
       id="clipPath6">
      <path
         d="M 0,720 H 1024 V 0 H 0 Z"
         transform="translate(-358.70071,-398.38041)"
         id="path6" />
    </clipPath>
    <clipPath
       clipPathUnits="userSpaceOnUse"
       id="clipPath8">
      <path
         d="M 0,720 H 1024 V 0 H 0 Z"
         transform="translate(-239.40231,-348.03711)"
         id="path8" />
    </clipPath>
    <clipPath
       clipPathUnits="userSpaceOnUse"
       id="clipPath20">
      <path
         d="M 0,720 H 1024 V 0 H 0 Z"
         transform="translate(-578.51951,-299.26171)"
         id="path20" />
    </clipPath>
    <clipPath
       clipPathUnits="userSpaceOnUse"
       id="clipPath22">
      <path
         d="M 0,720 H 1024 V 0 H 0 Z"
         transform="translate(-636.66112,-419.25291)"
         id="path22" />
    </clipPath>
    <clipPath
       clipPathUnits="userSpaceOnUse"
       id="clipPath24">
      <path
         d="M 0,720 H 1024 V 0 H 0 Z"
         transform="translate(-673.79002,-401.65431)"
         id="path24" />
    </clipPath>
    <clipPath
       clipPathUnits="userSpaceOnUse"
       id="clipPath28">
      <path
         d="M 0,720 H 1024 V 0 H 0 Z"
         transform="translate(-831.57812,-338.77831)"
         id="path28" />
    </clipPath>
    <clipPath
       clipPathUnits="userSpaceOnUse"
       id="clipPath8-2">
      <path
         d="M 0,841.89 H 595.276 V 0 H 0 Z"
         transform="translate(-485.89821,-413.74531)"
         id="path8-9" />
    </clipPath>
    <clipPath
       clipPathUnits="userSpaceOnUse"
       id="clipPath16-7">
      <path
         d="M 0,841.89 H 595.276 V 0 H 0 Z"
         transform="translate(-158.3653,-414.63201)"
         id="path16-5" />
    </clipPath>
    <clipPath
       clipPathUnits="userSpaceOnUse"
       id="clipPath18-3">
      <path
         d="M 0,841.89 H 595.276 V 0 H 0 Z"
         id="path18-5" />
    </clipPath>
    <clipPath
       clipPathUnits="userSpaceOnUse"
       id="clipPath20-6">
      <path
         d="M 0,841.89 H 595.276 V 0 H 0 Z"
         id="path20-2" />
    </clipPath>
    <clipPath
       clipPathUnits="userSpaceOnUse"
       id="clipPath22-9">
      <path
         d="M 0,841.89 H 595.276 V 0 H 0 Z"
         id="path22-1" />
    </clipPath>
    <clipPath
       clipPathUnits="userSpaceOnUse"
       id="clipPath24-2">
      <path
         d="M 0,841.89 H 595.276 V 0 H 0 Z"
         id="path24-7" />
    </clipPath>
    <clipPath
       clipPathUnits="userSpaceOnUse"
       id="clipPath26">
      <path
         d="M 0,841.89 H 595.276 V 0 H 0 Z"
         id="path26" />
    </clipPath>
  </defs>
  <g
     inkscape:label="Layer 1"
     inkscape:groupmode="layer"
     id="layer1"
     transform="translate(-14.169456,-258.13414)">
    <g
       id="g67">
      <g
         id="g66"
         transform="matrix(0.99113113,0,0,0.99113113,1.5314638,2.7028816)">
        <path
           id="path45"
           d="m 0,0 c -8.115,19.186 -12.229,39.572 -12.229,60.596 0,21.024 4.114,41.41 12.229,60.596 4.98,11.778 11.329,22.792 18.963,32.928 4.098,5.439 3.35,13.108 -1.74,17.631 -5.704,5.068 -14.518,4.185 -19.108,-1.911 -1.87,-2.483 -3.676,-5.012 -5.413,-7.582 -6.564,-9.722 -12.206,-20.113 -16.764,-30.889 -9.484,-22.423 -14.292,-46.234 -14.292,-70.773 0,-24.539 4.808,-48.35 14.292,-70.773 4.558,-10.776 10.2,-21.167 16.764,-30.888 1.717,-2.54 3.5,-5.04 5.347,-7.496 4.588,-6.099 13.405,-6.982 19.11,-1.913 5.088,4.522 5.836,12.186 1.744,17.626 C 11.295,-22.734 4.969,-11.746 0,0"
           style="fill:#000000;fill-opacity:1;fill-rule:nonzero;stroke:none"
           transform="matrix(0.41117179,0,0,-0.41117179,182.73721,329.69498)"
           clip-path="url(#clipPath20)" />
        <path
           id="path46"
           d="m 0,0 c 3.785,5.423 2.894,12.824 -2.05,17.217 -5.832,5.183 -14.9,4.147 -19.366,-2.251 -5.17,-7.405 -9.552,-15.336 -13.103,-23.732 -6.784,-16.044 -10.226,-33.077 -10.226,-50.629 0,-17.552 3.442,-34.585 10.226,-50.629 3.538,-8.362 7.897,-16.262 13.039,-23.64 4.462,-6.404 13.536,-7.442 19.37,-2.258 v 0.001 c 4.941,4.391 5.833,11.786 2.054,17.211 -4.102,5.89 -7.581,12.193 -10.402,18.862 -5.416,12.807 -8.162,26.415 -8.162,40.453 0,14.037 2.746,27.646 8.162,40.452 C -7.624,-12.244 -4.128,-5.913 0,0"
           style="fill:#000000;fill-opacity:1;fill-rule:nonzero;stroke:none"
           transform="matrix(0.41117179,0,0,-0.41117179,206.6434,280.35798)"
           clip-path="url(#clipPath22)" />
        <path
           id="path47"
           d="m 0,0 v 0 c -6.2,5.51 -15.936,3.939 -20.015,-3.283 -1.463,-2.589 -2.78,-5.267 -3.948,-8.03 -4.087,-9.661 -6.158,-19.918 -6.158,-30.483 0,-10.566 2.071,-20.823 6.158,-30.484 1.153,-2.727 2.452,-5.372 3.893,-7.93 4.07,-7.23 13.815,-8.801 20.017,-3.289 4.572,4.063 5.748,10.775 2.741,16.101 -4.364,7.727 -6.685,16.486 -6.685,25.602 0,9.146 2.337,17.933 6.729,25.678 C 5.753,-10.791 4.577,-4.067 0,0"
           style="fill:#000000;fill-opacity:1;fill-rule:nonzero;stroke:none"
           transform="matrix(0.41117179,0,0,-0.41117179,221.90976,287.59403)"
           clip-path="url(#clipPath24)" />
        <path
           id="path48"
           clip-path="url(#clipPath8-2)"
           style="fill:#000000;fill-opacity:1;fill-rule:nonzero;stroke:none"
           d="m -13.633956,19.147153 c -1.270997,0 -2.305267,-1.034929 -2.305267,-2.305927 V -2.4568871 c 0,-1.2709974 1.03427,-2.303947 2.305267,-2.303947 1.270997,0 2.305267,1.0329496 2.305267,2.303947 V -0.582579 H -12.3292 v -1.8743081 c 0,-0.7189985 -0.584757,-1.304096 -1.304756,-1.304096 -0.719999,0 -1.304756,0.5850975 -1.304756,1.304096 V 16.841226 c 0,0.72 0.584757,1.306076 1.304756,1.306076 0.719999,0 1.304756,-0.586076 1.304756,-1.306076 v -1.871668 h 1.000511 v 1.871668 c 0,1.270998 -1.03427,2.305927 -2.305267,2.305927 z"
           transform="matrix(0.91262425,0,0,-0.91262425,301.60775,311.33046)" />
        <path
           id="path49"
           clip-path="url(#clipPath8-2)"
           style="fill:#000000;fill-opacity:1;fill-rule:nonzero;stroke:none"
           d="m -12.660865,14.520839 c -0.963999,0 -1.748254,-0.783916 -1.748254,-1.748915 V 0.71695559 c 0,-0.96399904 0.784255,-1.74825429 1.748254,-1.74825429 h 12.29189706 c 0.56799943,0 1.03086944,0.46353001 1.03086944,1.03152944214 V 13.489969 c 0,0.568 -0.46287001,1.03087 -1.03086944,1.03087 z m 0,-0.661948 h 12.29189706 c 0.19775669,0 0.3893809,-0.178052 0.3893809,-0.368922 V 2.3074214e-4 c 0,-0.18820887214 -0.18963067,-0.36958187214 -0.3893809,-0.36958187214 H -12.660865 c -0.546185,0 -1.106766,0.53995856 -1.106766,1.08630672 V 12.771924 c 0,0.551265 0.549778,1.086967 1.106766,1.086967 z"
           transform="matrix(0.91262425,0,0,-0.91262425,301.71468,310.92126)"
           sodipodi:nodetypes="ssssssssssssssssss" />
        <path
           id="path50"
           clip-path="url(#clipPath8-2)"
           style="fill:#000000;fill-opacity:1;fill-rule:nonzero;stroke:none"
           d="m -39.705019,19.147229 c -3.244996,0 -5.886251,-2.641255 -5.886251,-5.886252 V 1.1241726 c 0,-0.52399943 0.07559,-1.02930622 0.20459,-1.51330573 l 0.145853,-0.46659712 c 0.815999,-2.27299775 2.985811,-3.90502845 5.535808,-3.90502845 h 25.953887 c -1.270996,0 -2.305267,1.0329496 -2.305267,2.303947 V 16.841302 c 0,1.270997 1.034271,2.305927 2.305267,2.305927 z m 25.953887,0 c 0.03939,0 0.07791,-0.004 0.116815,-0.0059 v 0.0059 z m 0,-23.9079877 h 0.116815 v 0.00594 c -0.03891,-0.00196 -0.07743,-0.00594 -0.116815,-0.00594 z"
           transform="matrix(0.91262425,0,0,-0.91262425,301.71468,311.33052)" />
        <path
           id="path51"
           d="M -45.591,11.296 H -67.944 V 3.089 h 22.353"
           style="fill:#000000;fill-opacity:1;fill-rule:nonzero;stroke:none"
           clip-path="url(#clipPath8-2)"
           sodipodi:nodetypes="cccc"
           transform="matrix(0.91262425,0,0,-0.91262425,301.71468,311.32985)" />
        <path
           id="path52"
           clip-path="url(#clipPath28)"
           style="fill:#000000;fill-opacity:1;fill-rule:nonzero;stroke:none"
           d="m -125.21215,47.445704 c -14.54299,0 -26.33203,-11.789047 -26.33203,-26.332033 0,-14.542985 11.78904,-26.3320321 26.33203,-26.3320321 14.54298,0 26.332032,11.7890471 26.332032,26.3320321 0,14.542986 -11.789052,26.332033 -26.332032,26.332033 z"
           transform="matrix(0.41117179,0,0,-0.41117179,286.78784,313.44715)" />
        <path
           id="path53"
           d="m 0,0 c -4.559,10.776 -10.2,21.167 -16.766,30.889 -1.736,2.569 -3.542,5.099 -5.412,7.582 -4.59,6.095 -13.404,6.979 -19.107,1.911 v 0 c -5.091,-4.524 -5.839,-12.192 -1.741,-17.632 7.634,-10.135 13.983,-21.149 18.964,-32.927 8.115,-19.185 12.229,-39.573 12.229,-60.596 0,-21.024 -4.114,-41.411 -12.229,-60.595 -4.969,-11.747 -11.296,-22.736 -18.904,-32.849 -4.092,-5.44 -3.344,-13.103 1.744,-17.626 5.705,-5.069 14.523,-4.185 19.11,1.913 1.847,2.455 3.63,4.955 5.346,7.495 6.566,9.722 12.207,20.113 16.766,30.889 9.483,22.423 14.292,46.233 14.292,70.773 C 14.292,-46.234 9.483,-22.423 0,0"
           style="fill:#000000;fill-opacity:1;fill-rule:nonzero;stroke:none"
           transform="matrix(0.41117179,0,0,-0.41117179,133.19101,275.6761)"
           clip-path="url(#clipPath2)" />
        <path
           id="path54"
           d="m 0,0 c -3.551,8.396 -7.933,16.327 -13.103,23.731 -4.466,6.399 -13.534,7.436 -19.366,2.252 -4.943,-4.393 -5.835,-11.795 -2.05,-17.217 4.128,-5.913 7.624,-12.245 10.458,-18.943 5.416,-12.806 8.163,-26.415 8.163,-40.452 0,-14.037 -2.747,-27.646 -8.163,-40.452 -2.821,-6.67 -6.299,-12.974 -10.402,-18.863 -3.778,-5.424 -2.887,-12.821 2.054,-17.211 5.835,-5.186 14.908,-4.147 19.37,2.257 5.143,7.377 9.502,15.278 13.039,23.639 6.785,16.044 10.227,33.077 10.227,50.63 C 10.227,-33.077 6.785,-16.044 0,0"
           style="fill:#000000;fill-opacity:1;fill-rule:nonzero;stroke:none"
           transform="matrix(0.41117179,0,0,-0.41117179,113.58408,283.95854)"
           clip-path="url(#clipPath4)" />
        <path
           id="path55"
           d="m 0,0 c -4.079,7.222 -13.814,8.793 -20.014,3.283 h -0.001 c -4.577,-4.068 -5.752,-10.791 -2.732,-16.117 4.393,-7.747 6.729,-16.533 6.729,-25.68 0,-9.115 -2.32,-17.874 -6.684,-25.601 -3.008,-5.326 -1.831,-12.038 2.741,-16.101 6.202,-5.512 15.947,-3.942 20.017,3.289 1.44,2.557 2.739,5.203 3.892,7.929 4.087,9.662 6.159,19.918 6.159,30.484 0,10.566 -2.072,20.823 -6.159,30.484 C 2.78,-5.268 1.463,-2.589 0,0"
           style="fill:#000000;fill-opacity:1;fill-rule:nonzero;stroke:none"
           transform="matrix(0.41117179,0,0,-0.41117179,92.353911,288.94016)"
           clip-path="url(#clipPath6)" />
        <path
           id="path62"
           clip-path="url(#clipPath28)"
           style="fill:#000000;fill-opacity:1;fill-rule:nonzero;stroke:none"
           d="m -125.21215,47.445704 c -14.54299,0 -26.33203,-11.789047 -26.33203,-26.332033 0,-14.542985 11.78904,-26.3320321 26.33203,-26.3320321 14.54298,0 26.332032,11.7890471 26.332032,26.3320321 0,14.542986 -11.789052,26.332033 -26.332032,26.332033 z"
           transform="matrix(0.41117179,0,0,-0.41117179,122.21392,313.43983)" />
        <path
           id="path63"
           clip-path="url(#clipPath8)"
           style="fill:#000000;fill-opacity:1;fill-rule:nonzero;stroke:none"
           d="M 2.3591499,29.383076 V 23.743427 H 51.131125 v 5.639649 z m 0,-9.795411 V 13.949481 H 51.131125 v 5.638184 z m 0,-9.792481 V 4.1555353 H 51.131125 V 9.795184 Z m 0,-9.79541062403 V -5.6398753 H 51.131125 v 5.63964867597 z"
           transform="matrix(0.41117179,0,0,-0.41117179,42.068263,309.63991)"
           sodipodi:nodetypes="cccccccccccccccccccc" />
        <g
           id="g65"
           transform="translate(0,145.52093)">
          <g
             id="g64">
            <path
               id="path64"
               clip-path="url(#clipPath8-2)"
               style="fill:#000000;fill-opacity:1;fill-rule:nonzero;stroke:none"
               d="m -12.661101,14.520865 c -0.963997,0 -1.747983,-0.784118 -1.747983,-1.749115 V -3.2961479 c 0,-0.9639972 0.783986,-1.7485491 1.747983,-1.7485491 0.963997,0 1.747983,0.7845519 1.747983,1.7485491 V 12.77175 c 0,0.964997 -0.783986,1.749115 -1.747983,1.749115 z m 0.845708,-1.749115 V -3.2961479 c 0,-0.5463471 -0.299524,-0.9142223 -0.845708,-0.9142223 -0.546185,0 -0.915519,0.3678752 -0.915519,0.9142223 V 12.77175 c 0,0.485158 0.328412,0.916212 0.916131,0.916212 0.587719,0 0.845096,-0.364949 0.845096,-0.916212 z"
               transform="matrix(0.72542105,0,0,-0.72542105,310.23541,162.68183)"
               sodipodi:nodetypes="sssssssssssscs" />
          </g>
          <path
             id="path65"
             clip-path="url(#clipPath8-2)"
             style="fill:#000000;fill-opacity:1;fill-rule:nonzero;stroke:none"
             d="m -12.661101,14.520755 c -0.963995,0 -1.747983,-0.78412 -1.747983,-1.749115 V 0.71695736 c 0,-0.9639952 0.783988,-1.74854906 1.747983,-1.74854906 v 5.663e-4 h 11.93350719 v -5.663e-4 c 0.76625434,0 1.38955288,0.62386466 1.38955288,1.39011916 V 13.13007 c 0,0.767049 -0.62329854,1.390685 -1.38955288,1.390685 l 5.6624e-4,-0.661934 c 0.46716194,0 0.67212684,-0.290567 0.67212684,-0.728751 V 0.35852746 c 0,-0.43427613 -0.23854699,-0.72705212 -0.67269308,-0.72705212 V -0.3690909 H -12.661101 v -5.6624e-4 c -0.546185,0 -1.106433,0.54026851 -1.106433,1.0866145 V 12.77164 c 0,0.551261 0.549445,1.087181 1.106433,1.087181 h 11.93350719 v 0.661934 z"
             transform="matrix(0.91262425,0,0,-0.91262425,301.71468,165.40008)" />
        </g>
      </g>
      <g
         id="g2"
         transform="translate(19.223625,162.49902)">
        <path
           id="path15-9"
           d="M 0,21.965 C 0,23.531 -1.269,24.8 -2.835,24.8 h -15.912 v -5.604 h -9.327677 V 16.812 H -18.747 v -5.504 h -9.327677 V 8.924 H -18.747 V 3.42 h -9.327677 V 1.035 H -18.747 v -5.504 h -9.327677 V -6.853 H -18.747 v -5.207 h 15.912 c 1.566,0 2.835,1.269 2.835,2.835 z"
           style="fill:#000000;fill-opacity:1;fill-rule:nonzero;stroke:none"
           transform="matrix(0.60460033,0,0,-0.60460033,24.964417,146.11277)"
           clip-path="url(#clipPath16-7)"
           sodipodi:nodetypes="csccccccccccccccccccscc" />
        <path
           id="path17-3"
           d="m 126.755,418.062 h -2.39 v -2.39 h 2.39 z"
           style="fill:#000000;fill-opacity:1;fill-rule:nonzero;stroke:none"
           transform="matrix(0.60460033,0,0,-0.60460033,-70.783294,396.79944)"
           clip-path="url(#clipPath18-3)"
           sodipodi:nodetypes="ccccc" />
        <path
           id="path19-6"
           d="m 126.755,425.952 h -2.39 v -2.4 h 2.39 z"
           style="fill:#000000;fill-opacity:1;fill-rule:nonzero;stroke:none"
           transform="matrix(0.60460033,0,0,-0.60460033,-70.783294,396.79944)"
           clip-path="url(#clipPath20-6)"
           sodipodi:nodetypes="ccccc" />
        <path
           id="path21-0"
           d="m 126.755,410.172 h -2.39 v -2.39 h 2.39 z"
           style="fill:#000000;fill-opacity:1;fill-rule:nonzero;stroke:none"
           transform="matrix(0.60460033,0,0,-0.60460033,-70.783294,396.79944)"
           clip-path="url(#clipPath22-9)"
           sodipodi:nodetypes="ccccc" />
        <path
           id="path23-6"
           d="m 126.755,433.832 h -2.39 v -2.39 h 2.39 z"
           style="fill:#000000;fill-opacity:1;fill-rule:nonzero;stroke:none"
           transform="matrix(0.60460033,0,0,-0.60460033,-70.783294,396.79944)"
           clip-path="url(#clipPath24-2)"
           sodipodi:nodetypes="ccccc" />
        <path
           id="path25"
           d="m 127.835,430.352 h -4.56 v 4.57 h 4.56 z m 0,-7.88 h -4.56 v 4.56 h 4.56 z m 0,-7.89 h -4.56 v 4.56 h 4.56 z m 0,-7.89 h -4.56 v 4.57 h 4.56 z m 1.36932,4.558 h 9.32668 v 3.331 h -9.32668 v 4.558 h 9.32668 v 3.33 h -9.32668 v 4.558 h 9.32668 v 3.33 h -9.32668 v 4.558 h 9.32668 v 4.517 h -26.986 c -1.56,0 -2.83,-1.27 -2.83,-2.84 v -31.18 c 0,-1.57 1.27,-2.84 2.83,-2.84 h 26.986 v 4.12 h -9.32668 z"
           style="fill:#000000;fill-opacity:1;fill-rule:nonzero;stroke:none"
           transform="matrix(0.60460033,0,0,-0.60460033,-70.783294,396.79944)"
           clip-path="url(#clipPath26)"
           sodipodi:nodetypes="cccccccccccccccccccccccccccccccccccsssscccc" />
      </g>
    </g>
  </g>
</svg>
