<?xml version="1.0" encoding="UTF-8" standalone="no"?>
<!-- Created with Inkscape (http://www.inkscape.org/) -->

<svg
   xmlns:dc="http://purl.org/dc/elements/1.1/"
   xmlns:cc="http://creativecommons.org/ns#"
   xmlns:rdf="http://www.w3.org/1999/02/22-rdf-syntax-ns#"
   xmlns:svg="http://www.w3.org/2000/svg"
   xmlns="http://www.w3.org/2000/svg"
   version="1.1"
   width="41.357086"
   height="38"
   viewBox="0 0 41.357086 37.999998"
   id="Layer_1"
   xml:space="preserve"><metadata
     id="metadata3705"><rdf:RDF><cc:Work
         rdf:about=""><dc:format>image/svg+xml</dc:format><dc:type
           rdf:resource="http://purl.org/dc/dcmitype/StillImage" /><dc:title></dc:title></cc:Work></rdf:RDF></metadata><defs
     id="defs3703" /><g
     transform="matrix(0.07599993,0,0,0.07599993,-3.0399972,-3.6206882)"
     id="g3591"><g
       id="g3593"><g
         id="g3595"><g
           id="g3597"><path
             d="M 320.012,101.484 V 68.146 c 0.17,-1.86 -0.055,-3.709 -0.679,-5.5 -1.832,-5.254 -6.803,-8.783 -12.367,-8.783 -1.445,0 -2.876,0.238 -4.257,0.711 l -186.123,64.04 c -5.283,1.821 -8.833,6.798 -8.833,12.384 v 33.175 L 46.898,196.871 C 42.643,199.156 40,203.577 40,208.405 v 271.497 c 0,5.586 3.551,10.563 8.835,12.385 l 158.803,54.643 c 1.376,0.471 2.812,0.711 4.257,0.711 1.445,0 2.877,-0.24 4.261,-0.713 l 177.582,-61.105 c 5.282,-1.816 8.832,-6.793 8.832,-12.381 V 201.99 c 0,-3.139 -1.129,-6.177 -3.182,-8.555 -52.756,-61.127 -72.494,-83.996 -79.376,-91.951 z m 48.083,95.776 -152.618,52.51 -66.502,-77.051 152.617,-52.514 c 12.598,14.597 48.056,55.68 66.503,77.055 z m -255.294,-4.202 15.273,-9.87 7.323,7.734 -22.596,2.136 z m 21.14,-39.25 V 140.341 L 293.822,85.327 v 13.47 l -159.881,55.011 z m -42.189,55.856 56.075,-4.713 28.187,33.709 -84.262,-28.996 z m 108.755,61.505 V 516.777 L 66.19,470.559 V 224.953 l 134.317,46.216 z M 376.38,218.491 v 245.606 l -153.099,52.68 V 271.169 L 376.38,218.491 z"
             id="path3599" /></g></g><g
         id="g3601"><path
           d="m 558.641,262.397 c -1.688,0 -3.403,-0.357 -5.036,-1.113 -6.02,-2.786 -8.64,-9.924 -5.854,-15.943 14.557,-31.443 16.354,-66.823 5.063,-99.62 -11.291,-32.796 -34.487,-59.567 -65.318,-75.385 -5.9,-3.027 -8.23,-10.266 -5.203,-16.166 3.028,-5.901 10.266,-8.23 16.167,-5.203 36.376,18.662 63.744,50.247 77.064,88.936 13.32,38.689 11.198,80.429 -5.977,117.529 -2.03,4.384 -6.371,6.965 -10.906,6.965 z"
           id="path3603" /><path
           d="m 512.821,240.05 c -1.766,0 -3.559,-0.392 -5.254,-1.218 -5.961,-2.906 -8.438,-10.096 -5.531,-16.058 9.326,-19.127 10.647,-40.737 3.721,-60.852 -6.928,-20.118 -21.272,-36.333 -40.394,-45.658 -5.961,-2.906 -8.437,-10.096 -5.53,-16.057 2.907,-5.963 10.097,-8.438 16.058,-5.53 24.888,12.137 43.56,33.241 52.575,59.426 9.015,26.178 7.296,54.305 -4.841,79.197 -2.081,4.268 -6.355,6.75 -10.804,6.75 z"
           id="path3605" /><path
           d="m 467.842,218.104 c -1.038,0 -2.094,-0.136 -3.146,-0.421 -6.402,-1.733 -10.187,-8.329 -8.453,-14.73 2.114,-7.804 1.83,-15.998 -0.82,-23.698 -2.65,-7.698 -7.472,-14.33 -13.941,-19.179 -5.308,-3.978 -6.386,-11.505 -2.408,-16.813 3.979,-5.308 11.508,-6.384 16.812,-2.407 10.332,7.744 18.025,18.317 22.247,30.58 4.222,12.265 4.67,25.334 1.295,37.796 -1.45,5.349 -6.296,8.872 -11.586,8.872 z"
           id="path3607" /></g></g><g
       id="g3609"><g
         id="g3611"><g
           id="g3613"><path
             d="m 345.67,335.613 c -26.05,8.963 -52.099,17.926 -78.148,26.891 -2.281,0.785 -4.146,3.51 -4.146,6.057 0,23.658 0,47.316 0,70.977 0,2.545 1.865,3.984 4.146,3.199 26.05,-8.965 52.099,-17.926 78.148,-26.891 2.279,-0.783 4.147,-3.51 4.147,-6.055 0,-23.658 0,-47.316 0,-70.975 0,-2.546 -1.868,-3.988 -4.147,-3.203 z m -33.515,68.434 c -4.445,1.529 -6.669,2.297 -11.115,3.826 0.868,-8.051 1.302,-12.076 2.17,-20.127 -2.044,-0.629 -3.417,-2.594 -3.417,-5.387 0,-4.195 3.05,-8.676 6.797,-9.965 3.76,-1.295 6.809,1.088 6.809,5.283 0,2.793 -1.37,5.734 -3.415,7.742 0.868,7.454 1.304,11.177 2.171,18.628 z"
             id="path3615" /><path
             d="m 344.674,332.184 c -4.389,1.51 -6.583,2.266 -10.973,3.777 0,-4.871 0,-7.309 0,-12.18 0.481,-14.994 -12.385,-26.412 -27.104,-20.92 -15.92,5.941 -26.759,22.758 -27.104,39.568 0,4.871 0,7.309 0,12.18 -4.389,1.51 -6.584,2.266 -10.973,3.775 0,-4.869 0,-7.307 0,-12.176 0.262,-23.357 15.869,-47.504 38.077,-55.592 20.833,-7.588 38.508,8.314 38.077,29.389 0,4.87 0,7.309 0,12.179 z"
             id="path3617" /></g></g></g></g></svg>