<?xml version="1.0" encoding="UTF-8" standalone="no"?>
<!-- Created with Inkscape (http://www.inkscape.org/) -->

<svg
   width="287mm"
   height="95.317177mm"
   viewBox="0 0 287 95.317177"
   version="1.1"
   id="svg1"
   inkscape:version="1.3.2 (091e20e, 2023-11-25)"
   sodipodi:docname="martina-final.svg"
   xmlns:inkscape="http://www.inkscape.org/namespaces/inkscape"
   xmlns:sodipodi="http://sodipodi.sourceforge.net/DTD/sodipodi-0.dtd"
   xmlns="http://www.w3.org/2000/svg"
   xmlns:svg="http://www.w3.org/2000/svg">
  <sodipodi:namedview
     id="namedview1"
     pagecolor="#ffffff"
     bordercolor="#666666"
     borderopacity="1.0"
     inkscape:showpageshadow="2"
     inkscape:pageopacity="0.0"
     inkscape:pagecheckerboard="0"
     inkscape:deskcolor="#d1d1d1"
     inkscape:document-units="mm"
     inkscape:zoom="0.8120125"
     inkscape:cx="265.39"
     inkscape:cy="471.05186"
     inkscape:window-width="3768"
     inkscape:window-height="2089"
     inkscape:window-x="72"
     inkscape:window-y="34"
     inkscape:window-maximized="1"
     inkscape:current-layer="layer1"
     showgrid="false" />
  <defs
     id="defs1">
    <clipPath
       clipPathUnits="userSpaceOnUse"
       id="clipPath26">
      <path
         d="M 0,841.89 H 595.276 V 0 H 0 Z"
         id="path26" />
    </clipPath>
    <clipPath
       clipPathUnits="userSpaceOnUse"
       id="clipPath24">
      <path
         d="M 0,841.89 H 595.276 V 0 H 0 Z"
         id="path24" />
    </clipPath>
    <clipPath
       clipPathUnits="userSpaceOnUse"
       id="clipPath22">
      <path
         d="M 0,841.89 H 595.276 V 0 H 0 Z"
         id="path22" />
    </clipPath>
    <clipPath
       clipPathUnits="userSpaceOnUse"
       id="clipPath20">
      <path
         d="M 0,841.89 H 595.276 V 0 H 0 Z"
         id="path20" />
    </clipPath>
    <clipPath
       clipPathUnits="userSpaceOnUse"
       id="clipPath18">
      <path
         d="M 0,841.89 H 595.276 V 0 H 0 Z"
         id="path18" />
    </clipPath>
    <clipPath
       clipPathUnits="userSpaceOnUse"
       id="clipPath16">
      <path
         d="M 0,841.89 H 595.276 V 0 H 0 Z"
         transform="translate(-158.3653,-414.63201)"
         id="path16" />
    </clipPath>
    <clipPath
       clipPathUnits="userSpaceOnUse"
       id="clipPath14">
      <path
         d="M 0,841.89 H 595.276 V 0 H 0 Z"
         transform="translate(-219.61,-441.41331)"
         id="path14" />
    </clipPath>
    <clipPath
       clipPathUnits="userSpaceOnUse"
       id="clipPath12">
      <path
         d="M 0,841.89 H 595.276 V 0 H 0 Z"
         transform="translate(-247.0777,-447.85841)"
         id="path12" />
    </clipPath>
    <clipPath
       clipPathUnits="userSpaceOnUse"
       id="clipPath10">
      <path
         d="M 0,841.89 H 595.276 V 0 H 0 Z"
         transform="translate(-272.44521,-458.57441)"
         id="path10" />
    </clipPath>
    <clipPath
       clipPathUnits="userSpaceOnUse"
       id="clipPath8">
      <path
         d="M 0,841.89 H 595.276 V 0 H 0 Z"
         transform="translate(-485.89821,-413.74531)"
         id="path8" />
    </clipPath>
    <clipPath
       clipPathUnits="userSpaceOnUse"
       id="clipPath6">
      <path
         d="M 0,841.89 H 595.276 V 0 H 0 Z"
         transform="translate(-387.23061,-443.15491)"
         id="path6" />
    </clipPath>
    <clipPath
       clipPathUnits="userSpaceOnUse"
       id="clipPath4">
      <path
         d="M 0,841.89 H 595.276 V 0 H 0 Z"
         transform="translate(-367.47861,-452.51701)"
         id="path4" />
    </clipPath>
    <clipPath
       clipPathUnits="userSpaceOnUse"
       id="clipPath2">
      <path
         d="M 0,841.89 H 595.276 V 0 H 0 Z"
         transform="translate(-336.54841,-388.68441)"
         id="path2" />
    </clipPath>
  </defs>
  <g
     inkscape:label="Layer 1"
     inkscape:groupmode="layer"
     id="layer1"
     transform="translate(5.0541697,-94.64766)">
    <g
       id="g29"
       transform="matrix(2.2195692,0,0,2.2195692,-186.31946,-164.97233)">
      <g
         id="g28">
        <path
           id="path1"
           d="m -6.506,32.236 c 0,11.184 2.189,22.029 6.506,32.235 2.65,6.266 6.027,12.125 10.088,17.517 2.18,2.894 1.782,6.973 -0.926,9.38 v 0 c -3.034,2.696 -7.723,2.226 -10.165,-1.017 -0.994,-1.321 -1.955,-2.666 -2.879,-4.033 -3.493,-5.172 -6.494,-10.7 -8.919,-16.433 -5.044,-11.928 -7.603,-24.595 -7.603,-37.649 0,-13.055 2.559,-25.721 7.603,-37.65 2.425,-5.733 5.426,-11.26 8.919,-16.432 0.913,-1.351 1.862,-2.681 2.845,-3.987 2.44,-3.245 7.131,-3.715 10.165,-1.018 2.707,2.406 3.105,6.483 0.928,9.376 C 6.009,-12.094 2.643,-6.249 0,0 -4.317,10.206 -6.506,21.052 -6.506,32.236 Z"
           style="fill:#000000;fill-opacity:1;fill-rule:nonzero;stroke:none"
           transform="matrix(0.35277776,0,0,-0.35277776,158.05043,149.8214)"
           clip-path="url(#clipPath2)"
           sodipodi:nodetypes="sccsscccsccccccs" />
        <path
           id="path3"
           d="m -1.09,9.159 c -3.103,2.758 -7.927,2.206 -10.303,-1.198 -2.75,-3.939 -5.081,-8.158 -6.97,-12.624 -3.609,-8.535 -5.44,-17.596 -5.44,-26.934 0,-9.337 1.831,-18.399 5.44,-26.934 1.882,-4.448 4.201,-8.65 6.936,-12.576 2.374,-3.406 7.201,-3.958 10.305,-1.2 v 0 c 2.628,2.336 3.102,6.27 1.093,9.156 -2.183,3.133 -4.033,6.486 -5.534,10.034 -2.882,6.813 -4.343,14.053 -4.343,21.52 0,7.467 1.461,14.707 4.343,21.52 C -4.056,-6.513 -2.196,-3.146 0,0 2.014,2.885 1.539,6.822 -1.09,9.159 Z"
           style="fill:#000000;fill-opacity:1;fill-rule:nonzero;stroke:none"
           transform="matrix(0.35277776,0,0,-0.35277776,168.96192,127.30268)"
           clip-path="url(#clipPath4)"
           sodipodi:nodetypes="cccsccssccsccc" />
        <path
           id="path5"
           d="m 0,0 c -3.299,2.931 -8.477,2.095 -10.647,-1.746 -0.778,-1.378 -1.479,-2.803 -2.101,-4.272 -2.174,-5.14 -3.276,-10.596 -3.276,-16.217 0,-5.621 1.102,-11.077 3.276,-16.217 0.614,-1.45 1.305,-2.857 2.071,-4.218 2.165,-3.846 7.349,-4.682 10.649,-1.749 2.432,2.161 3.058,5.732 1.458,8.565 -2.322,4.11 -3.556,8.77 -3.556,13.619 0,4.866 1.243,9.54 3.579,13.661 C 3.06,-5.741 2.435,-2.164 0,0 Z"
           style="fill:#000000;fill-opacity:1;fill-rule:nonzero;stroke:none"
           transform="matrix(0.35277776,0,0,-0.35277776,175.92998,130.60542)"
           clip-path="url(#clipPath6)"
           sodipodi:nodetypes="sccsccccsccs" />
        <path
           id="path7"
           d="m 0,0 c 0,-0.204 -0.166,-0.369 -0.369,-0.369 -0.203,0 -0.369,0.165 -0.369,0.369 v 13.49 c 0,0.203 0.166,0.369 0.369,0.369 C -0.166,13.859 0,13.693 0,13.49 Z m -12.329,-2.457 c 0,-0.719 -0.585,-1.304 -1.305,-1.304 -0.72,0 -1.305,0.585 -1.305,1.304 v 19.298 c 0,0.72 0.585,1.306 1.305,1.306 0.72,0 1.305,-0.586 1.305,-1.306 v -2.32 h -0.332 c -0.964,0 -1.748,-0.784 -1.748,-1.749 V 0.717 c 0,-0.964 0.784,-1.748 1.748,-1.748 h 0.332 z m 1,16.978 v 2.32 c 0,1.271 -1.034,2.306 -2.305,2.306 h -26.071 c -3.245,0 -5.886,-2.641 -5.886,-5.886 v -1.965 h -22.353 c -1.754,5.734 -7.086,9.905 -13.394,9.905 -7.736,0 -14.008,-6.272 -14.008,-14.009 0,-7.736 6.272,-14.008 14.008,-14.008 6.308,0 11.64,4.171 13.394,9.905 h 22.353 V 1.124 c 0,-0.524 0.075,-1.029 0.204,-1.513 1.393,-1.795 4.392,-1.966 4.432,-1.967 h 25.417 v 19.197 c 0,1.051 0.854,1.906 1.904,1.906 0.056,0 0.1,-0.045 0.1,-0.1 0,-0.056 -0.044,-0.101 -0.1,-0.101 -0.94,0 -1.705,-0.764 -1.705,-1.705 V -2.457 c 0,-0.94 0.765,-1.704 1.705,-1.704 0.056,0 0.1,-0.045 0.1,-0.1 0,-0.055 -0.044,-0.1 -0.1,-0.1 -1.015,0 -1.841,0.801 -1.894,1.804 H -40.96 c -0.041,0.002 -2.742,0.158 -4.281,1.701 0.816,-2.273 2.986,-3.905 5.536,-3.905 h 26.071 c 1.271,0 2.305,1.033 2.305,2.304 v 1.426 h 10.96 c 0.568,0 1.031,0.463 1.031,1.031 v 13.49 c 0,0.568 -0.463,1.031 -1.031,1.031 z"
           style="fill:#000000;fill-opacity:1;fill-rule:nonzero;stroke:none"
           transform="matrix(0.35277776,0,0,-0.35277776,210.73771,140.98047)"
           clip-path="url(#clipPath8)"
           sodipodi:nodetypes="ssssssssssssscsssscscssssccsssccscccssssssssscccssscssscc" />
      </g>
      <g
         id="g27">
        <path
           id="path9"
           d="m -8.919,16.432 c -0.924,1.367 -1.884,2.713 -2.879,4.034 -2.442,3.242 -7.13,3.713 -10.165,1.016 v 0 c -2.708,-2.406 -3.106,-6.486 -0.926,-9.379 4.062,-5.392 7.439,-11.251 10.088,-17.517 4.317,-10.206 6.506,-21.052 6.506,-32.236 0,-11.184 -2.189,-22.029 -6.506,-32.235 -2.643,-6.249 -6.009,-12.094 -10.056,-17.475 -2.177,-2.894 -1.779,-6.971 0.928,-9.376 3.035,-2.697 7.726,-2.227 10.166,1.017 0.982,1.307 1.931,2.637 2.844,3.988 3.493,5.171 6.494,10.699 8.919,16.432 5.045,11.928 7.603,24.595 7.603,37.649 C 7.603,-24.595 5.045,-11.928 0,0 -2.425,5.733 -5.426,11.261 -8.919,16.432 Z"
           style="fill:#000000;fill-opacity:1;fill-rule:nonzero;stroke:none"
           transform="matrix(0.35277776,0,0,-0.35277776,135.43624,125.16576)"
           clip-path="url(#clipPath10)"
           sodipodi:nodetypes="csssccsccccccscc" />
        <path
           id="path11"
           d="m -6.97,12.625 c -2.376,3.404 -7.2,3.955 -10.303,1.197 -2.63,-2.337 -3.104,-6.274 -1.09,-9.159 2.195,-3.145 4.055,-6.513 5.563,-10.077 2.881,-6.812 4.342,-14.052 4.342,-21.52 0,-7.467 -1.461,-14.707 -4.342,-21.519 -1.501,-3.548 -3.351,-6.902 -5.534,-10.035 -2.01,-2.885 -1.536,-6.82 1.093,-9.156 v 0 c 3.104,-2.758 7.931,-2.206 10.305,1.201 2.735,3.925 5.054,8.128 6.936,12.576 3.609,8.535 5.44,17.596 5.44,26.933 C 5.44,-17.596 3.609,-8.535 0,0 -1.889,4.466 -4.22,8.686 -6.97,12.625 Z"
           style="fill:#000000;fill-opacity:1;fill-rule:nonzero;stroke:none"
           transform="matrix(0.35277776,0,0,-0.35277776,126.48715,128.94613)"
           clip-path="url(#clipPath12)"
           sodipodi:nodetypes="ccccsccssscscc" />
        <path
           id="path13"
           d="m -10.647,1.746 v 0 c -2.435,-2.163 -3.061,-5.74 -1.454,-8.574 2.337,-4.12 3.58,-8.795 3.58,-13.66 0,-4.85 -1.235,-9.509 -3.556,-13.62 -1.6,-2.833 -0.974,-6.404 1.458,-8.565 3.299,-2.932 8.483,-2.097 10.649,1.749 0.766,1.361 1.457,2.768 2.07,4.219 2.174,5.139 3.276,10.596 3.276,16.217 0,5.62 -1.102,11.077 -3.276,16.216 C 1.479,-2.802 0.778,-1.377 0,0 -2.17,3.842 -7.349,4.677 -10.647,1.746 Z"
           style="fill:#000000;fill-opacity:1;fill-rule:nonzero;stroke:none"
           transform="matrix(0.35277776,0,0,-0.35277776,116.79716,131.21982)"
           clip-path="url(#clipPath14)"
           sodipodi:nodetypes="sscsccccsccs" />
        <path
           id="path15"
           d="M 0,21.965 C 0,23.531 -1.269,24.8 -2.835,24.8 h -15.912 v -5.604 h -9.327677 V 16.812 H -18.747 v -5.504 h -9.327677 V 8.924 H -18.747 V 3.42 h -9.327677 V 1.035 H -18.747 v -5.504 h -9.327677 V -6.853 H -18.747 v -5.207 h 15.912 c 1.566,0 2.835,1.269 2.835,2.835 z"
           style="fill:#000000;fill-opacity:1;fill-rule:nonzero;stroke:none"
           transform="matrix(0.27239535,0,0,-0.27239535,95.19139,140.15562)"
           clip-path="url(#clipPath16)"
           sodipodi:nodetypes="csccccccccccccccccccscc" />
        <path
           id="path17"
           d="m 126.755,418.062 h -2.39 v -2.39 h 2.39 z"
           style="fill:#000000;fill-opacity:1;fill-rule:nonzero;stroke:none"
           transform="matrix(0.27239535,0,0,-0.27239535,52.053419,253.09946)"
           clip-path="url(#clipPath18)"
           sodipodi:nodetypes="ccccc" />
        <path
           id="path19"
           d="m 126.755,425.952 h -2.39 v -2.4 h 2.39 z"
           style="fill:#000000;fill-opacity:1;fill-rule:nonzero;stroke:none"
           transform="matrix(0.27239535,0,0,-0.27239535,52.053419,253.09946)"
           clip-path="url(#clipPath20)"
           sodipodi:nodetypes="ccccc" />
        <path
           id="path21"
           d="m 126.755,410.172 h -2.39 v -2.39 h 2.39 z"
           style="fill:#000000;fill-opacity:1;fill-rule:nonzero;stroke:none"
           transform="matrix(0.27239535,0,0,-0.27239535,52.053419,253.09946)"
           clip-path="url(#clipPath22)"
           sodipodi:nodetypes="ccccc" />
        <path
           id="path23"
           d="m 126.755,433.832 h -2.39 v -2.39 h 2.39 z"
           style="fill:#000000;fill-opacity:1;fill-rule:nonzero;stroke:none"
           transform="matrix(0.27239535,0,0,-0.27239535,52.053419,253.09946)"
           clip-path="url(#clipPath24)"
           sodipodi:nodetypes="ccccc" />
        <path
           id="path25"
           d="m 127.835,430.352 h -4.56 v 4.57 h 4.56 z m 0,-7.88 h -4.56 v 4.56 h 4.56 z m 0,-7.89 h -4.56 v 4.56 h 4.56 z m 0,-7.89 h -4.56 v 4.57 h 4.56 z m 1.36932,4.558 h 9.32668 v 3.331 h -9.32668 v 4.558 h 9.32668 v 3.33 h -9.32668 v 4.558 h 9.32668 v 3.33 h -9.32668 v 4.558 h 9.32668 v 4.517 h -26.986 c -1.56,0 -2.83,-1.27 -2.83,-2.84 v -31.18 c 0,-1.57 1.27,-2.84 2.83,-2.84 h 26.986 v 4.12 h -9.32668 z"
           style="fill:#000000;fill-opacity:1;fill-rule:nonzero;stroke:none"
           transform="matrix(0.27239535,0,0,-0.27239535,52.053419,253.09946)"
           clip-path="url(#clipPath26)"
           sodipodi:nodetypes="cccccccccccccccccccccccccccccccccccsssscccc" />
        <path
           id="path27"
           d="M 0,0 V 2.21 H 19.872 C 20.107,1.441 20.416,0.706 20.773,0 Z M 19.316,7.42 C 19.287,7.053 19.259,6.685 19.259,6.311 c 0,-0.372 0.028,-0.737 0.056,-1.101 H 0 v 2.21 z m 1.462,5.21 C 20.42,11.924 20.111,11.189 19.875,10.42 H 0 v 2.21 z m 2.052,3 H 0 V -3 h 22.822 c 2.565,-2.876 6.288,-4.697 10.445,-4.697 7.737,0 14.008,6.271 14.008,14.008 0,7.736 -6.271,14.008 -14.008,14.008 -4.152,0 -7.872,-1.818 -10.437,-4.689 z"
           style="fill:#000000;fill-opacity:1;fill-rule:nonzero;stroke:none"
           transform="matrix(0.35277776,0,0,-0.35277776,95.19139,140.66766)"
           clip-path="url(#clipPath16)"
           sodipodi:nodetypes="ccccccsccccccccccccccccc" />
      </g>
    </g>
  </g>
</svg>
