<?xml version="1.0" encoding="UTF-8" standalone="no"?>
<!-- Created with Inkscape (http://www.inkscape.org/) -->

<svg
   width="297mm"
   height="210mm"
   viewBox="0 0 297 210"
   version="1.1"
   id="svg1"
   inkscape:version="1.3.2 (091e20e, 2023-11-25)"
   sodipodi:docname="usb-final.svg"
   xmlns:inkscape="http://www.inkscape.org/namespaces/inkscape"
   xmlns:sodipodi="http://sodipodi.sourceforge.net/DTD/sodipodi-0.dtd"
   xmlns="http://www.w3.org/2000/svg"
   xmlns:svg="http://www.w3.org/2000/svg">
  <sodipodi:namedview
     id="namedview1"
     pagecolor="#ffffff"
     bordercolor="#666666"
     borderopacity="1.0"
     inkscape:showpageshadow="2"
     inkscape:pageopacity="0.0"
     inkscape:pagecheckerboard="0"
     inkscape:deskcolor="#d1d1d1"
     inkscape:document-units="mm"
     inkscape:zoom="2"
     inkscape:cx="567.25"
     inkscape:cy="391.25"
     inkscape:window-width="3768"
     inkscape:window-height="2089"
     inkscape:window-x="72"
     inkscape:window-y="34"
     inkscape:window-maximized="1"
     inkscape:current-layer="layer1"
     showgrid="false"
     showguides="false" />
  <defs
     id="defs1">
    <clipPath
       clipPathUnits="userSpaceOnUse"
       id="clipPath8">
      <path
         d="M 0,841.89 H 595.276 V 0 H 0 Z"
         transform="translate(-485.89821,-413.74531)"
         id="path8" />
    </clipPath>
  </defs>
  <g
     inkscape:label="Layer 1"
     inkscape:groupmode="layer"
     id="layer1"
     transform="translate(10.054168,-37.306245)">
    <g
       id="g34"
       transform="translate(-104.30435,85.936047)">
      <path
         id="path29"
         clip-path="url(#clipPath8)"
         style="fill:#000000;fill-opacity:1;fill-rule:nonzero;stroke:none"
         d="m -13.633956,19.147153 c -1.270997,0 -2.305267,-1.034929 -2.305267,-2.305927 V -2.4568871 c 0,-1.2709974 1.03427,-2.303947 2.305267,-2.303947 1.270997,0 2.305267,1.0329496 2.305267,2.303947 V -0.582579 H -12.3292 v -1.8743081 c 0,-0.7189985 -0.584757,-1.304096 -1.304756,-1.304096 -0.719999,0 -1.304756,0.5850975 -1.304756,1.304096 V 16.841226 c 0,0.72 0.584757,1.306076 1.304756,1.306076 0.719999,0 1.304756,-0.586076 1.304756,-1.306076 v -1.871668 h 1.000511 v 1.871668 c 0,1.270998 -1.03427,2.305927 -2.305267,2.305927 z"
         transform="matrix(0.78301465,0,0,-0.78301465,268.99987,62.002547)" />
      <g
         id="g33"
         transform="translate(0,21.695841)">
        <path
           id="path30"
           clip-path="url(#clipPath8)"
           style="fill:#000000;fill-opacity:1;fill-rule:nonzero;stroke:none"
           d="m -0.36896794,14.520854 c -0.56799943,0 -1.03086946,-0.46287 -1.03086946,-1.030869 V 2.4649323e-4 c 0,-0.56799943323 0.46287003,-1.03152939323 1.03086946,-1.03152939323 0.56799943,0 1.03086944,0.46352996 1.03086944,1.03152939323 V 13.489985 c 0,0.567999 -0.46287001,1.030869 -1.03086944,1.030869 z m 0,-0.661947 c 0.2029998,0 0.368921903984,-0.165922 0.368921903984,-0.368922 V 2.4649323e-4 C -4.6036016e-5,-0.2037533 -0.16596814,-0.36867541 -0.36896794,-0.36867541 c -0.2029998,0 -0.36892191,0.16492211 -0.36892191,0.36892190323 V 13.489985 c 0,0.203 0.16592211,0.368922 0.36892191,0.368922 z"
           transform="matrix(0.78301465,0,0,-0.78301465,269.09162,39.955616)" />
        <path
           id="path31"
           clip-path="url(#clipPath8)"
           style="fill:#000000;fill-opacity:1;fill-rule:nonzero;stroke:none"
           d="m -12.660865,14.520839 c -0.963999,0 -1.748254,-0.783916 -1.748254,-1.748915 V 0.71695559 c 0,-0.96399904 0.784255,-1.74825429 1.748254,-1.74825429 h 12.29189706 c 0.56799943,0 1.03086944,0.46353001 1.03086944,1.03152944214 V 13.489969 c 0,0.568 -0.46287001,1.03087 -1.03086944,1.03087 z m 0,-0.661948 h 12.29189706 c 0.19775669,0 0.3893809,-0.178052 0.3893809,-0.368922 V 2.3074214e-4 c 0,-0.18820887214 -0.18963067,-0.36958187214 -0.3893809,-0.36958187214 H -12.660865 c -0.546185,0 -1.106766,0.53995856 -1.106766,1.08630672 V 12.771924 c 0,0.551265 0.549778,1.086967 1.106766,1.086967 z"
           transform="matrix(0.78301465,0,0,-0.78301465,269.09162,39.955616)"
           sodipodi:nodetypes="ssssssssssssssssss" />
      </g>
      <path
         id="path32"
         clip-path="url(#clipPath8)"
         style="fill:#000000;fill-opacity:1;fill-rule:nonzero;stroke:none"
         d="m -39.705019,19.147229 c -3.244996,0 -5.886251,-2.641255 -5.886251,-5.886252 V 1.1241726 c 0,-0.52399943 0.07559,-1.02930622 0.20459,-1.51330573 l 0.145853,-0.46659712 c 0.815999,-2.27299775 2.985811,-3.90502845 5.535808,-3.90502845 h 25.953887 c -1.270996,0 -2.305267,1.0329496 -2.305267,2.303947 V 16.841302 c 0,1.270997 1.034271,2.305927 2.305267,2.305927 z m 25.953887,0 c 0.03939,0 0.07791,-0.004 0.116815,-0.0059 v 0.0059 z m 0,-23.9079877 h 0.116815 v 0.00594 c -0.03891,-0.00196 -0.07743,-0.00594 -0.116815,-0.00594 z"
         transform="matrix(0.78301465,0,0,-0.78301465,269.09162,62.002606)" />
      <path
         id="path33"
         d="M -45.591,11.296 H -67.944 V 3.089 h 22.353"
         style="fill:#000000;fill-opacity:1;fill-rule:nonzero;stroke:none"
         clip-path="url(#clipPath8)"
         sodipodi:nodetypes="cccc"
         transform="matrix(0.78301465,0,0,-0.78301465,269.09162,62.00203)" />
    </g>
  </g>
</svg>
