<?xml version="1.0" encoding="UTF-8" standalone="no"?>
<!-- Created with Inkscape (http://www.inkscape.org/) -->

<svg
   width="287mm"
   height="89.342316mm"
   viewBox="0 0 287 89.34232"
   version="1.1"
   id="svg1"
   inkscape:version="1.3.2 (091e20e, 2023-11-25)"
   sodipodi:docname="abhi-final.svg"
   xmlns:inkscape="http://www.inkscape.org/namespaces/inkscape"
   xmlns:sodipodi="http://sodipodi.sourceforge.net/DTD/sodipodi-0.dtd"
   xmlns="http://www.w3.org/2000/svg"
   xmlns:svg="http://www.w3.org/2000/svg">
  <sodipodi:namedview
     id="namedview1"
     pagecolor="#ffffff"
     bordercolor="#666666"
     borderopacity="1.0"
     inkscape:showpageshadow="2"
     inkscape:pageopacity="0.0"
     inkscape:pagecheckerboard="0"
     inkscape:deskcolor="#d1d1d1"
     inkscape:document-units="mm"
     inkscape:zoom="1.4142136"
     inkscape:cx="561.79632"
     inkscape:cy="211.77848"
     inkscape:window-width="3768"
     inkscape:window-height="2089"
     inkscape:window-x="72"
     inkscape:window-y="34"
     inkscape:window-maximized="1"
     inkscape:current-layer="layer1"
     showgrid="false" />
  <defs
     id="defs1" />
  <g
     inkscape:label="Layer 1"
     inkscape:groupmode="layer"
     id="layer1"
     transform="translate(128.11677,-134.72202)">
    <g
       id="g1"
       inkscape:export-filename="abhi-height-256.png"
       inkscape:export-xdpi="72.779999"
       inkscape:export-ydpi="72.779999">
      <path
         id="path58"
         d="m -15.021611,136.77703 c -0.957346,0 -1.84966,0.36958 -2.528829,1.05055 -1.32223,1.32079 -1.412553,3.45476 -0.209541,4.85825 8.7786769,10.21615 13.6123732,23.25341 13.6123732,36.70789 0,13.4545 -4.8336963,26.48959 -13.6123732,36.70789 -1.203012,1.40351 -1.112689,3.53532 0.205914,4.85646 0.715301,0.71601 1.661806,1.09571 2.673343,1.04838 1.022384,-0.0394 1.954434,-0.49132 2.622774,-1.27128 9.8660752,-11.51669 15.3030738,-26.19876 15.3030738,-41.34145 0,-15.14267 -5.4369986,-29.82475 -15.3030738,-41.34323 -0.66834,-0.78034 -1.60039,-1.2301 -2.622774,-1.27129 -0.04698,0 -0.09393,-0.002 -0.140887,-0.002 z m -0.0035,87.28717 c -1.506474,0 -2.911779,-0.58199 -3.981112,-1.65132 -2.077261,-2.07618 -2.214544,-5.43809 -0.310693,-7.65082 8.457167,-9.84441 13.1138383,-22.40515 13.1138383,-35.36834 0,-12.96319 -4.6566713,-25.52392 -13.1138383,-35.37049 -1.903851,-2.21236 -1.766568,-5.57247 0.310693,-7.64865 v 0 c 1.123524,-1.12496 2.633608,-1.70262 4.205091,-1.64916 1.578714,0.0618 3.074342,0.78647 4.10394,1.98767 10.18399876,11.88987 15.7943949,27.047 15.7943949,42.68063 0,15.63184 -5.61039614,30.78861 -15.7943949,42.67883 -1.029598,1.20302 -2.525226,1.92734 -4.10394,1.98732 -0.07225,0.002 -0.151722,0.004 -0.223979,0.004"
         style="fill:#000000;fill-opacity:1;fill-rule:nonzero;stroke:none;stroke-width:0.0361262" />
      <path
         id="path59"
         d="m -30.684497,207.83211 c 0.731319,0.72852 1.707591,1.10013 2.725845,1.0403 1.03574,-0.0577 2.008501,-0.55917 2.659349,-1.37867 6.441943,-8.06346 9.846617,-17.78026 9.846617,-28.09926 0,-10.31936 -3.404674,-20.03616 -9.846617,-28.10171 -0.650848,-0.81739 -1.623609,-1.32092 -2.659349,-1.37866 -1.018254,-0.0619 -1.994526,0.31352 -2.725845,1.0424 -1.294693,1.29608 -1.406668,3.35358 -0.262433,4.78404 5.353696,6.68688 8.299992,15.0866 8.299992,23.65393 0,8.56488 -2.946296,16.96461 -8.299992,23.65148 -1.144235,1.43255 -1.03226,3.49006 0.262433,4.78615 z m 2.529882,3.102 c -1.487145,0 -2.921795,-0.59206 -3.98203,-1.64881 -2.036519,-2.0393 -2.214977,-5.27113 -0.412898,-7.52282 5.133256,-6.41465 7.848593,-14.14988 7.848593,-22.368 0,-8.22057 -2.715337,-15.95579 -7.848593,-22.37045 -1.802079,-2.2496 -1.623621,-5.48351 0.412898,-7.52072 1.133727,-1.13303 2.697845,-1.73559 4.293466,-1.64075 1.620105,0.091 3.131734,0.87303 4.149987,2.14848 6.637888,8.31118 10.294518,18.74602 10.294518,29.38344 0,10.63498 -3.65663,21.06981 -10.294518,29.3831 -1.018253,1.27334 -2.529882,2.0575 -4.149987,2.14638 -0.104978,0.006 -0.206458,0.0102 -0.311436,0.0102"
         style="fill:#000000;fill-opacity:1;fill-rule:nonzero;stroke:none;stroke-width:0.0349916" />
      <path
         id="path60"
         d="m -43.900113,194.61098 v 0.002 c 0.765169,0.76348 1.82489,1.14132 2.894767,1.03196 1.090183,-0.10936 2.058486,-0.69779 2.664515,-1.61193 2.871073,-4.34856 4.391243,-9.41118 4.391243,-14.63901 0,-5.22987 -1.52017,-10.29045 -4.391243,-14.64104 -0.606029,-0.91415 -1.574332,-1.50053 -2.664515,-1.60989 -1.069877,-0.11141 -2.129598,0.26644 -2.894767,1.03195 -1.218849,1.21782 -1.394903,3.09587 -0.429975,4.56525 2.085574,3.17036 3.185925,6.85432 3.185925,10.65373 0,3.79737 -1.100351,7.48168 -3.185925,10.65169 -0.964928,1.47142 -0.788874,3.34744 0.426582,4.56526 z m 2.529104,3.10805 c -1.489696,0 -2.915073,-0.58605 -3.981556,-1.65321 h -0.0035 v -0.002 c -1.882439,-1.88211 -2.173597,-4.88927 -0.690671,-7.14514 1.865515,-2.83552 2.850749,-6.12741 2.850749,-9.52461 0,-3.3972 -0.985234,-6.69112 -2.850749,-9.52459 -1.482926,-2.25792 -1.191768,-5.26306 0.690671,-7.14719 1.205306,-1.20327 2.86768,-1.79373 4.557135,-1.62445 1.706385,0.17132 3.223168,1.09189 4.171165,2.52199 3.097895,4.68715 4.733188,10.14181 4.733188,15.77424 0,5.63242 -1.635293,11.0871 -4.733188,15.77221 -0.947997,1.43213 -2.46478,2.35272 -4.171165,2.52402 -0.189603,0.0186 -0.382582,0.0288 -0.572179,0.0288"
         style="fill:#000000;fill-opacity:1;fill-rule:nonzero;stroke:none;stroke-width:0.0338568" />
      <path
         id="path71"
         d="m -122.63806,169.96777 v 0.004 l -0.0452,17.42415 c 0,0.56726 -0.46233,1.0263 -1.02991,1.0263 -0.56759,-0.004 -1.02369,-0.45904 -1.02369,-1.02958 v 0 l 0.0394,-15.11582 -1.36436,1.22304 v 17.26987 c 0,0.56726 -0.46036,1.0263 -1.0276,1.0263 -0.56758,0 -1.02598,-0.45904 -1.02598,-1.0263 v -17.72912 c 0,-0.29182 0.12394,-0.56725 0.34068,-0.76399 l 3.42386,-3.07235 c 0.30329,-0.27215 0.73676,-0.33773 1.10629,-0.17377 0.36955,0.16722 0.60661,0.53446 0.60661,0.93776"
         style="fill:#000000;fill-opacity:1;fill-rule:nonzero;stroke:none;stroke-width:0.0327893" />
      <path
         id="path72"
         d="m -98.665791,169.96958 v 17.42494 c 0,0.56717 -0.460297,1.02615 -1.027801,1.02615 -0.567488,0 -1.027788,-0.45898 -1.027788,-1.02615 v -16.39878 h -22.9419 c -0.56749,0 -1.02779,-0.45899 -1.02779,-1.02616 0,-0.56717 0.4603,-1.02616 1.02779,-1.02616 h 23.969688 c 0.567504,0 1.027801,0.45899 1.027801,1.02616"
         style="fill:#000000;fill-opacity:1;fill-rule:nonzero;stroke:none;stroke-width:0.0327844" />
      <path
         id="path73"
         d="m -107.6336,169.9697 v 2.55727 c 0,0.19646 -0.16077,0.3569 -0.35887,0.3569 h -5.21344 v 1.44073 h 5.21344 c 0.1981,0 0.35887,0.16045 0.35887,0.36017 v 1.31957 c 0,0.19974 -0.16077,0.36018 -0.35887,0.36018 h -5.21344 v 1.5193 h 5.21344 c 0.1981,0 0.35887,0.16044 0.35887,0.36018 v 1.09364 c 0,0.19646 -0.16077,0.3569 -0.35887,0.3569 h -5.21344 v 1.50621 h 5.21344 c 0.1981,0 0.35887,0.16372 0.35887,0.36018 v 1.08055 c 0,0.19645 -0.16077,0.3569 -0.35887,0.3569 h -5.21344 v 1.60443 h 5.21344 c 0.1981,0 0.35887,0.16044 0.35887,0.3569 v 2.43285 c 0,0.19974 -0.16077,0.36346 -0.35887,0.36346 -0.20039,0 -0.36117,-0.16372 -0.36117,-0.36346 v -2.07267 h -5.21146 c -0.1981,0 -0.35888,-0.16044 -0.35888,-0.36018 v -2.31823 c 0,-0.19974 0.16078,-0.36018 0.35888,-0.36018 h 5.21146 v -0.36018 h -5.21146 c -0.1981,0 -0.35888,-0.16045 -0.35888,-0.36019 v -2.22329 c 0,-0.19973 0.16078,-0.36018 0.35888,-0.36018 h 5.21146 v -0.37656 h -5.21146 c -0.1981,0 -0.35888,-0.16044 -0.35888,-0.3569 v -2.23966 c 0,-0.19972 0.16078,-0.36018 0.35888,-0.36018 h 5.21146 v -0.59921 h -5.21146 c -0.1981,0 -0.35888,-0.16371 -0.35888,-0.36018 v -2.1578 c 0,-0.19974 0.16078,-0.36018 0.35888,-0.36018 h 5.21146 v -2.19709 c 0,-0.19973 0.16078,-0.36018 0.36117,-0.36018 0.1981,0 0.35887,0.16045 0.35887,0.36018"
         style="fill:#000000;fill-opacity:1;fill-rule:nonzero;stroke:none;stroke-width:0.0327436" />
      <path
         id="path70"
         d="m -102.99367,189.74061 1.10211,-1.31937 h -21.39818 l -1.31904,1.31937 z m 4.327897,-2.34695 c 0,0.23786 -0.08055,0.46938 -0.239442,0.65968 l -2.819195,3.37454 c -0.19633,0.23469 -0.48526,0.3679 -0.78846,0.3679 h -24.5764 c -0.41484,0 -0.79067,-0.25056 -0.94956,-0.63431 -0.15889,-0.38376 -0.0701,-0.82461 0.22296,-1.11956 l 3.37454,-3.37454 c 0.19378,-0.19346 0.45384,-0.3013 0.72629,-0.3013 h 24.021372 c 0.400255,0 0.763718,0.23153 0.930855,0.59308 0.06596,0.13956 0.09704,0.28862 0.09704,0.43451"
         style="fill:#000000;fill-opacity:1;fill-rule:nonzero;stroke:none;stroke-width:0.0317156" />
      <path
         id="path74"
         d="m -115.36705,174.33976 v -1.45662 h -1.58274 v 1.45662 z m 0.7205,-1.81508 v 2.17353 c 0,0.19878 -0.16098,0.35846 -0.36139,0.35846 h -2.30095 c -0.2004,0 -0.36138,-0.15968 -0.36138,-0.35846 v -2.17353 c 0,-0.19877 0.16098,-0.35846 0.36138,-0.35846 h 2.30095 c 0.20041,0 0.36139,0.15969 0.36139,0.35846"
         style="fill:#000000;fill-opacity:1;fill-rule:nonzero;stroke:none;stroke-width:0.0325868" />
      <path
         id="path75"
         d="m -115.36731,177.85045 v -1.45347 h -1.58296 v 1.45347 z m 0.72025,-1.81278 v 2.1721 c 0,0.2007 -0.16089,0.35933 -0.36094,0.35933 h -2.30127 c -0.20006,0 -0.36127,-0.15863 -0.36127,-0.35933 v -2.1721 c 0,-0.19746 0.16121,-0.35933 0.36127,-0.35933 h 2.30127 c 0.20005,0 0.36094,0.16187 0.36094,0.35933"
         style="fill:#000000;fill-opacity:1;fill-rule:nonzero;stroke:none;stroke-width:0.0323713" />
      <path
         id="path76"
         d="m -115.36645,181.16654 v -1.45398 h -1.58298 v 1.45398 z m 0.72024,-1.81427 v 2.17135 c 0,0.19944 -0.16115,0.36348 -0.36125,0.36348 h -2.30129 c -0.20008,0 -0.36092,-0.16404 -0.36092,-0.36348 v -2.17135 c 0,-0.19945 0.16084,-0.36027 0.36092,-0.36027 h 2.30129 c 0.2001,0 0.36125,0.16082 0.36125,0.36027"
         style="fill:#000000;fill-opacity:1;fill-rule:nonzero;stroke:none;stroke-width:0.0321679" />
      <path
         id="path77"
         d="m -115.36646,184.63348 v -1.45075 h -1.58305 v 1.45075 z m 0.72026,-1.81185 v 2.17294 c 0,0.19813 -0.16105,0.3611 -0.36109,0.3611 h -2.30108 c -0.20036,0 -0.36141,-0.16297 -0.36141,-0.3611 v -2.17294 c 0,-0.19811 0.16105,-0.35788 0.36141,-0.35788 h 2.30108 c 0.20004,0 0.36109,0.15977 0.36109,0.35788"
         style="fill:#000000;fill-opacity:1;fill-rule:nonzero;stroke:none;stroke-width:0.0319549" />
      <path
         id="path78"
         d="m -68.276325,173.83523 c 0,0.56532 -0.458436,1.02668 -1.025724,1.02668 h -30.39049 c -0.567611,0 -1.029951,-0.46136 -1.029951,-1.02668 0,-0.56534 0.45811,-1.0267 1.025727,-1.0267 h 30.394714 c 0.567288,0 1.025724,0.46136 1.025724,1.0267"
         style="fill:#000000;fill-opacity:1;fill-rule:nonzero;stroke:none;stroke-width:0.0324903" />
      <path
         id="path79"
         d="m -69.780693,177.5718 c 0,0.56781 -0.460361,1.02591 -1.027848,1.02591 H -99.69237 c -0.56747,0 -1.02977,-0.4581 -1.02977,-1.02591 0,-0.5678 0.4581,-1.02913 1.025576,-1.02913 h 28.888023 c 0.567487,0 1.027848,0.46133 1.027848,1.02913"
         style="fill:#000000;fill-opacity:1;fill-rule:nonzero;stroke:none;stroke-width:0.0322613" />
      <path
         id="path80"
         d="m -69.781096,181.30171 c 0,0.56696 -0.460298,1.02824 -1.027585,1.02824 h -28.888082 c -0.567617,0 -1.027927,-0.46128 -1.027927,-1.02824 0,-0.56699 0.46031,-1.02824 1.027927,-1.02824 h 28.888082 c 0.567287,0 1.027585,0.46125 1.027585,1.02824"
         style="fill:#000000;fill-opacity:1;fill-rule:nonzero;stroke:none;stroke-width:0.0320323" />
      <path
         id="path81"
         d="m -68.281923,185.03821 c 0,0.56927 -0.460192,1.02724 -1.027884,1.02724 h -30.385938 c -0.567675,0 -1.027875,-0.45797 -1.027875,-1.02724 0,-0.5661 0.4602,-1.02725 1.027875,-1.02725 h 30.385938 c 0.567692,0 1.027884,0.46115 1.027884,1.02725"
         style="fill:#000000;fill-opacity:1;fill-rule:nonzero;stroke:none;stroke-width:0.0318031" />
      <path
         id="path2"
         d="m -69.955945,179.43775 c 0,2.44801 0.951338,4.74527 2.681002,6.47887 1.729342,1.72706 4.030535,2.67742 6.474295,2.67742 5.048075,0 9.155297,-4.10623 9.155297,-9.15629 0,-5.04676 -4.107222,-9.15301 -9.155297,-9.15301 -2.44376,0 -4.744953,0.95037 -6.476261,2.68069 -1.727698,1.72705 -2.679036,4.03087 -2.679036,6.47232 z m 20.366343,0 c 0,6.18394 -5.029741,11.21104 -11.211046,11.21104 -2.992672,0 -5.807722,-1.16665 -7.927368,-3.27711 -2.117353,-2.12359 -3.283672,-4.93863 -3.283672,-7.93394 0,-2.98872 1.166319,-5.80706 3.281706,-7.92735 2.121612,-2.11702 4.936662,-3.28041 7.929334,-3.28041 6.181305,0 11.211046,5.02711 11.211046,11.20776"
         style="fill:#000000;fill-opacity:1;fill-rule:nonzero;stroke:none;stroke-width:0.0327713" />
      <path
         id="path61"
         d="m 53.027716,136.77727 c -0.04745,0 -0.0949,0.002 -0.145316,0.004 -1.020143,0.0391 -1.951326,0.48901 -2.621533,1.26924 -9.866356,11.51847 -15.299242,26.20088 -15.299242,41.34324 0,15.14265 5.432886,29.82506 15.299242,41.34144 0.670207,0.77994 1.60139,1.23218 2.621533,1.27133 1.014229,0.037 1.960225,-0.33244 2.674918,-1.04655 1.322634,-1.32292 1.411605,-3.45486 0.207592,-4.85815 -8.775043,-10.21836 -13.608874,-23.25371 -13.608874,-36.70807 0,-13.45438 4.833831,-26.49149 13.608874,-36.7078 1.204013,-1.40329 1.115042,-3.5373 -0.207592,-4.85844 -0.679105,-0.68089 -1.574689,-1.0504 -2.529602,-1.0504 z m 0.0029,87.2869 c -0.07415,0 -0.151249,-0.002 -0.22539,-0.004 -1.577661,-0.0599 -3.072294,-0.78409 -4.104308,-1.9875 -10.183677,-11.88975 -15.794477,-27.04694 -15.794477,-42.67861 0,-15.63375 5.6108,-30.79065 15.794477,-42.67862 1.032014,-1.20311 2.526647,-1.92759 4.104308,-1.98957 1.589537,-0.0495 3.084171,0.5243 4.205138,1.64913 v 0 c 2.075886,2.07618 2.215258,5.43614 0.311389,7.6508 -8.454744,9.84443 -13.110649,22.40528 -13.110649,35.36826 0,12.96328 4.655905,25.52383 13.110667,35.36854 1.903869,2.2123 1.764497,5.57255 -0.311389,7.64873 -1.070555,1.07116 -2.476229,1.653 -3.979749,1.653"
         style="fill:#000000;fill-opacity:1;fill-rule:nonzero;stroke:none;stroke-width:0.0296554" />
      <path
         id="path62"
         d="m 69.409893,208.55894 h 0.006 z m -3.244065,-58.64852 c -0.07006,0 -0.140116,0.002 -0.207125,0.004 -1.035664,0.0579 -2.004325,0.56139 -2.659221,1.37865 -6.439404,8.0657 -9.844921,17.78237 -9.844921,28.10156 0,10.31949 3.405517,20.03586 9.844921,28.09944 0.654896,0.81939 1.623557,1.32077 2.659221,1.37865 1.020436,0.06 1.995175,-0.31163 2.726236,-1.04024 1.294582,-1.29611 1.407282,-3.35373 0.261966,-4.786 -5.351964,-6.68704 -8.297517,-15.0869 -8.297517,-23.65185 0,-8.56709 2.945553,-16.96694 8.297517,-23.65368 1.145316,-1.43044 1.032616,-3.48806 -0.261966,-4.78416 -0.682328,-0.67897 -1.568733,-1.04633 -2.519111,-1.04633 z m -0.0091,61.02415 c -0.106616,0 -0.207142,-0.004 -0.313741,-0.0104 -1.617478,-0.0887 -3.131365,-0.87301 -4.148764,-2.14658 -6.637396,-8.31303 -10.292681,-18.74798 -10.292681,-29.38304 0,-10.63507 3.655285,-21.07183 10.292681,-29.38305 1.017399,-1.2757 2.531286,-2.05762 4.148764,-2.14839 1.599179,-0.0929 3.161822,0.50748 4.294964,1.64062 2.037818,2.03722 2.214498,5.27122 0.411213,7.52075 -5.132642,6.41656 -7.846692,14.15176 -7.846692,22.37007 0,8.21831 2.71405,15.95382 7.846692,22.36793 1.803285,2.25197 1.626605,5.48386 -0.411213,7.5229 -1.060031,1.05667 -2.494745,1.64914 -3.981223,1.64914"
         style="fill:#000000;fill-opacity:1;fill-rule:nonzero;stroke:none;stroke-width:0.0304607" />
      <path
         id="path63"
         d="m 79.372867,163.12489 c -0.121956,0 -0.2439,0.004 -0.365844,0.0184 -1.088188,0.10944 -2.057527,0.69574 -2.661034,1.61005 -2.873659,4.35052 -4.393349,9.41333 -4.393349,14.64095 0,5.22761 1.51969,10.29043 4.393349,14.63875 0.603507,0.91432 1.572846,1.50281 2.661034,1.61193 1.078793,0.11351 2.13257,-0.26828 2.898669,-1.03189 v -0.002 c 1.216369,-1.21982 1.39148,-3.09598 0.425254,-4.56532 -2.082544,-3.16822 -3.186347,-6.85206 -3.186347,-10.65161 0,-3.79954 1.103803,-7.48368 3.186347,-10.65377 0.966226,-1.46935 0.791115,-3.34739 -0.425254,-4.56501 -0.678555,-0.67918 -1.585354,-1.05066 -2.532825,-1.05066 z m 0,34.59455 c -0.190744,0 -0.381493,-0.0104 -0.572225,-0.0291 -1.704186,-0.17135 -3.223882,-1.09161 -4.168205,-2.52407 -3.098797,-4.68695 -4.734183,-10.13971 -4.734183,-15.77194 0,-5.63224 1.635386,-11.08719 4.734183,-15.77415 0.944323,-1.43026 2.464019,-2.35082 4.168205,-2.52187 1.688536,-0.17137 3.355204,0.41869 4.55594,1.62413 1.88554,1.88429 2.17636,4.89146 0.691058,7.14725 -1.863654,2.83362 -2.845513,6.12753 -2.845513,9.52464 0,3.3971 0.981859,6.68883 2.845513,9.52465 1.485302,2.25577 1.194482,5.26076 -0.691058,7.14505 v 0.004 c -1.069414,1.06504 -2.495289,1.65133 -3.983715,1.65133"
         style="fill:#000000;fill-opacity:1;fill-rule:nonzero;stroke:none;stroke-width:0.0312694" />
      <path
         id="path1"
         d="m 89.650401,179.656 c 0,2.44802 0.951338,4.74528 2.681002,6.47888 1.729342,1.72705 4.030535,2.67741 6.474295,2.67741 5.048072,0 9.155292,-4.10623 9.155292,-9.15629 0,-5.04676 -4.10722,-9.15301 -9.155292,-9.15301 -2.44376,0 -4.744953,0.95038 -6.476261,2.6807 -1.727698,1.72705 -2.679036,4.03086 -2.679036,6.47231 z m 20.366339,0 c 0,6.18394 -5.02974,11.21105 -11.211042,11.21105 -2.992672,0 -5.807722,-1.16665 -7.927368,-3.27712 -2.117353,-2.12359 -3.283672,-4.93862 -3.283672,-7.93393 0,-2.98872 1.166319,-5.80706 3.281706,-7.92735 2.121612,-2.11702 4.936662,-3.28041 7.929334,-3.28041 6.181302,0 11.211042,5.02711 11.211042,11.20776"
         style="fill:#000000;fill-opacity:1;fill-rule:nonzero;stroke:none;stroke-width:0.0327713" />
      <path
         id="path66"
         d="m 150.69802,187.94714 -0.002,0.0522 c -0.0267,0.54861 -0.47872,0.97639 -1.02569,0.97639 h -19.98227 c -2.79235,0 -5.06252,-1.65336 -5.06252,-4.44536 v -0.53228 h -15.99901 c -0.56786,0 -1.02798,-0.45717 -1.02798,-1.02537 0,-0.56821 0.46012,-1.02864 1.02798,-1.02864 h 17.02471 c 0.56755,0 1.02764,0.46043 1.02764,1.02864 v 1.55765 c 0,1.65886 1.34997,2.38809 3.00918,2.38809 h 15.68551 c -1.53152,-1.40417 -2.89585,-3.76187 -2.89585,-7.68701 0,-7.01756 4.49302,-8.89197 7.14721,-8.89197 0.56755,0 1.05052,0.46044 1.05052,1.02864 0,0.5682 -0.43758,1.02864 -1.00512,1.02864 h -0.0454 c -0.85033,0 -5.09157,0.32981 -5.09157,6.83469 0,7.06982 5.02986,7.67068 5.24212,7.69354 h 0.92283 v 1.0221"
         style="fill:#000000;fill-opacity:1;fill-rule:nonzero;stroke:none;stroke-width:0.0326551"
         sodipodi:nodetypes="ccssscssssssscssssssccc" />
      <path
         id="path68"
         d="m 158.88323,174.58381 v 10.1457 c 0,1.67467 -1.35799,3.03656 -3.02972,3.03656 h -9.08943 c -0.56755,0 -1.0276,-0.45941 -1.0276,-1.02631 0,-0.56691 0.46005,-1.02629 1.0276,-1.02629 h 9.08943 c 0.53662,0 0.97614,-0.44311 0.97614,-0.98396 v -10.1457 c 0,-0.54085 -0.43952,-0.98069 -0.97614,-0.98069 h -9.70619 c -0.56755,0 -1.02792,-0.4594 -1.02792,-1.02957 0,-0.5669 0.46037,-1.02628 1.02792,-1.02628 h 9.70619 c 1.67173,0 3.02972,1.36187 3.02972,3.03654"
         style="fill:#000000;fill-opacity:1;fill-rule:nonzero;stroke:none;stroke-width:0.0325809" />
      <path
         id="path5"
         d="m 152.82368,174.58381 v 10.1457 c 0,1.67467 1.35798,3.03656 3.02971,3.03656 v -2.0526 c -0.53661,0 -0.97614,-0.44311 -0.97614,-0.98396 v -10.1457 c 0,-0.54085 0.43953,-0.98069 0.97614,-0.98069 v -2.05585 c -1.67173,0 -3.02971,1.36187 -3.02971,3.03654 z"
         style="fill:#000000;fill-opacity:1;fill-rule:nonzero;stroke:none;stroke-width:0.0325809"
         sodipodi:nodetypes="csccssccc" />
      <path
         id="path8"
         d="m 150.69802,171.36888 -0.002,-0.0522 c -0.0267,-0.54861 -0.47872,-0.97638 -1.02569,-0.97638 h -19.98227 c -2.79235,0 -5.06252,1.65336 -5.06252,4.44536 v 0.53227 h -15.99901 c -0.56786,0 -1.02798,0.45717 -1.02798,1.02537 0,0.56821 0.46012,1.02865 1.02798,1.02865 h 17.02471 c 0.56755,0 1.02764,-0.46044 1.02764,-1.02865 v -1.55764 c 0,-1.65887 1.34997,-2.3881 3.00918,-2.3881 6.69581,3.5e-4 21.01025,-0.007 21.01025,-0.007 0,0 0,-0.49962 0,-1.0221"
         style="fill:#000000;fill-opacity:1;fill-rule:nonzero;stroke:none;stroke-width:0.0326551"
         sodipodi:nodetypes="ccssscssssssscc" />
    </g>
  </g>
</svg>
